<svg width="24" height="24" viewBox="0 0 24 24" fill="none" xmlns="http://www.w3.org/2000/svg">
<path d="M20.3848 2.87871C19.2132 1.70714 17.3137 1.70714 16.1422 2.87871L14.0203 5.00055L13.3131 4.29335C12.9226 3.90283 12.2894 3.90283 11.8989 4.29335C11.5084 4.68388 11.5084 5.31704 11.8989 5.70757L17.5557 11.3644C17.9463 11.7549 18.5794 11.7549 18.97 11.3644C19.3605 10.9739 19.3605 10.3407 18.97 9.95021L18.2629 9.24319L20.3848 7.12135C21.5564 5.94978 21.5564 4.05028 20.3848 2.87871Z" fill="black"/>
<path fill-rule="evenodd" clip-rule="evenodd" d="M11.9297 7.09119L4.15156 14.8694C3.22792 15.793 3.03245 17.1691 3.56516 18.2842L2 19.8494L3.41421 21.2636L4.97937 19.6984C6.0945 20.2311 7.47056 20.0356 8.3942 19.112L16.1724 11.3338L11.9297 7.09119ZM13.3439 11.3338L11.9297 9.91962L5.56577 16.2836C5.17525 16.6741 5.17525 17.3073 5.56577 17.6978C5.95629 18.0883 6.58946 18.0883 6.97998 17.6978L13.3439 11.3338Z" fill="black"/>
</svg>
