<svg width="24" height="24" viewBox="0 0 24 24" fill="none" xmlns="http://www.w3.org/2000/svg">
<path fill-rule="evenodd" clip-rule="evenodd" d="M3.49985 12.8995C2.7188 13.6805 2.7188 14.9468 3.49985 15.7279L7.35773 19.5858H4.08564C3.53335 19.5858 3.08564 20.0335 3.08564 20.5858C3.08564 21.1381 3.53335 21.5858 4.08564 21.5858H20.0856C20.6379 21.5858 21.0856 21.1381 21.0856 20.5858C21.0856 20.0335 20.6379 19.5858 20.0856 19.5858H10.9557L20.4704 10.071C21.2515 9.28999 21.2515 8.02366 20.4704 7.24261L16.2278 2.99997C15.4467 2.21892 14.1804 2.21892 13.3993 2.99997L3.49985 12.8995ZM7.82566 11.4021L4.91406 14.3137L9.1567 18.5563L12.0683 15.6447L7.82566 11.4021ZM9.23988 9.98787L13.4825 14.2305L19.0562 8.65683L14.8136 4.41418L9.23988 9.98787Z" fill="black"/>
</svg>
