<?xml version="1.0" encoding="utf-8"?>
<!-- Generator: Adobe Illustrator 13.0.0, SVG Export Plug-In . SVG Version: 6.00 Build 14948)  -->
<!DOCTYPE svg PUBLIC "-//W3C//DTD SVG 1.0//EN" "http://www.w3.org/TR/2001/REC-SVG-20010904/DTD/svg10.dtd">
<svg version="1.0" id="Ebene_1" xmlns="http://www.w3.org/2000/svg" xmlns:xlink="http://www.w3.org/1999/xlink" x="0px" y="0px"
	 width="467.717px" height="225.808px" viewBox="0 0 467.717 225.808" enable-background="new 0 0 467.717 225.808"
	 xml:space="preserve">
<path fill-rule="evenodd" clip-rule="evenodd" d="M0,6.506h49.728c11.907,0,23.595,0.881,35.172,2.755
	c11.466,1.766,22.271,6.837,32.416,14.995c9.482,8.05,16.869,18.305,22.162,30.763c5.403,12.458,8.38,25.249,8.821,38.48
	c0.221,0.882,0.331,1.875,0.331,2.866c0,0.883,0,1.875,0,2.868c0,0.331,0,0.662,0,0.993c0,0.22,0,0.55,0,0.992
	c-0.331,13.781-3.198,27.012-8.601,39.912c-5.292,12.793-13.12,23.267-23.485,31.533c-9.15,6.729-18.854,11.025-29.328,13.013
	c-10.364,2.095-21.059,3.198-31.864,3.638c-1.764,0-3.639,0-5.513,0c-1.875,0-3.749,0-5.733,0H0V6.506L0,6.506z M36.386,156.345
	c1.213,0,2.537,0,3.97,0.112c1.433,0.107,2.978,0.107,4.521,0.107c0.552,0,0.992,0,1.544,0c0.44,0,0.881,0,1.433,0
	c1.102,0.225,2.095,0.332,3.198,0.332c1.102,0,2.095,0,2.976,0c1.764,0,3.528-0.107,5.293-0.22c1.764,0,3.528-0.22,5.403-0.332
	c5.292-0.439,10.584-1.431,15.767-2.866c5.072-1.543,9.592-3.857,13.341-6.943c5.843-4.961,10.254-11.689,13.231-20.068
	s4.52-17.091,4.631-26.132c0-0.221,0-0.44,0-0.661c0-0.331,0-0.662,0-1.103c0-0.331,0-0.662,0-0.992c0-0.221,0-0.552,0-0.993
	c-0.111-8.931-1.654-17.642-4.521-25.911c-2.866-8.38-7.167-15.216-12.791-20.508c-4.079-3.858-8.82-6.506-14.222-7.939
	c-5.292-1.433-10.806-2.205-16.54-2.426c-1.212-0.22-2.536-0.331-3.749-0.331c-1.212,0-2.536,0-3.749,0H36.386V156.345
	L36.386,156.345z M251.059,186.335l-11.135-13.12c-4.742,4.414-10.254,8.052-16.429,10.806c-6.174,2.866-12.569,4.521-18.965,5.073
	c-0.662,0.107-1.323,0.22-1.985,0.22s-1.323,0-1.984,0c-1.434,0-2.757-0.112-4.19-0.22c-1.433-0.112-2.756-0.332-4.189-0.439
	c-2.758-0.552-5.513-1.323-8.269-2.319c-2.757-0.991-5.293-2.202-7.83-3.745c-4.521-3.091-8.048-7.168-10.805-12.129
	c-2.756-5.073-4.41-10.254-4.962-15.547c-0.11-0.664-0.11-1.323-0.11-1.875s0-1.104,0-1.655c0-0.439,0-0.879,0-1.431
	c0.11-0.552,0.11-1.104,0.11-1.655c0-0.22,0.111-0.332,0.111-0.439c0.109-0.225,0.109-0.332,0.109-0.664
	c0-0.22,0.11-0.552,0.11-0.991c0.111-0.332,0.111-0.664,0.111-0.884c1.433-7.827,4.74-14.331,10.033-19.517
	c5.292-5.181,11.137-9.702,17.421-13.78c-3.969-4.189-7.167-8.71-9.812-13.563c-2.646-4.74-3.97-9.812-3.97-14.884
	c0-0.992,0-1.985,0.22-3.088c0.11-0.991,0.221-2.095,0.332-2.976c0.22-0.772,0.33-1.433,0.55-2.096
	c0.221-0.771,0.441-1.432,0.551-2.095c2.206-6.946,6.506-11.907,12.791-15.105c6.286-3.197,12.9-4.851,20.067-4.851
	c8.931,0,17.09,2.425,24.478,7.277c7.387,4.74,11.137,11.907,11.137,21.168v2.316c-0.552,5.845-2.756,10.915-6.506,15.106
	c-3.749,4.189-7.828,7.938-12.128,11.356c-0.993,0.552-1.985,1.104-2.868,1.875c-0.881,0.661-1.764,1.323-2.646,1.874l22.382,26.133
	c1.214-1.104,2.317-2.207,3.418-3.311c1.104-1.104,2.096-2.202,3.089-3.418c2.314-2.202,4.519-4.521,6.726-6.836
	c2.205-2.427,4.3-4.741,6.285-7.168l14.885,15.771c-1.655,1.763-3.418,3.525-5.073,5.288c-1.653,1.768-3.308,3.53-4.961,5.405
	c-1.875,1.763-3.638,3.525-5.293,5.293c-1.653,1.763-3.308,3.525-4.961,5.293l24.478,29.546H251.059L251.059,186.335z
	 M187.55,158.884c1.433,1.875,2.868,3.418,4.191,4.629c1.432,1.323,2.866,2.207,4.409,2.979c1.434,0.771,2.757,1.431,4.19,1.763
	s2.756,0.552,4.189,0.552c2.978,0,5.733-0.659,8.269-1.763c2.537-1.216,4.962-2.646,7.057-4.189
	c1.874-1.323,4.079-3.198,6.395-5.625l-25.029-29.878c-0.552,0.327-1.102,0.771-1.764,1.099c-0.55,0.332-0.992,0.771-1.433,1.104
	c-2.646,2.314-5.182,4.854-7.498,7.72c-2.425,2.866-4.079,5.845-5.072,8.931c-0.221,0.771-0.441,1.543-0.552,2.314
	c-0.22,0.771-0.22,1.655-0.22,2.427c0,1.431,0.22,2.754,0.771,4.077S186.779,157.668,187.55,158.884L187.55,158.884z
	 M207.617,101.549c0.22-0.111,0.331-0.221,0.442-0.331c0.22-0.111,0.329-0.111,0.66-0.331c0.111-0.111,0.331-0.221,0.442-0.441
	c0.11-0.11,0.22-0.11,0.441-0.11c2.756-1.984,5.292-4.079,7.718-6.174c2.314-2.206,3.859-5.072,4.63-8.49v-2.535
	c0-3.639-1.322-6.616-3.859-8.821c-2.425-2.206-5.183-3.529-8.159-3.97c-0.221,0-0.552,0-0.771,0c-0.331,0-0.552,0-0.882,0
	c-0.11,0-0.331,0-0.551,0c-0.111,0-0.442,0-0.663,0c-2.204,0.221-4.409,1.214-6.395,2.866c-1.984,1.544-3.197,3.97-3.417,7.167
	c0,0.11-0.11,0.332-0.11,0.552c-0.111,0.221-0.111,0.44-0.111,0.771c0,0.11-0.11,0.221-0.11,0.44c-0.11,0.221-0.11,0.442-0.11,0.773
	c0,2.756,0.771,5.403,2.314,7.717c1.543,2.426,3.198,4.742,4.962,6.947c0.771,0.661,1.323,1.323,1.875,1.984
	C206.515,100.226,207.065,100.887,207.617,101.549L207.617,101.549z M467.717,89.751v6.064c0,16.538-2.757,31.975-8.27,46.418
	s-16.096,26.133-32.085,35.063c-5.071,3.306-10.583,5.732-16.758,7.607c-6.064,1.763-12.129,3.086-18.193,3.857
	c-2.207,0.112-4.302,0.332-6.284,0.439c-2.098,0-4.08,0.112-6.064,0.112c-1.213,0-2.316,0-3.527,0c-1.214,0-2.317-0.112-3.531-0.332
	c-14.772-0.879-28.887-4.961-42.668-12.129c-13.672-7.056-24.81-16.646-33.188-28.667c-4.189-6.392-7.497-13.34-10.034-20.615
	c-2.534-7.28-4.189-14.666-5.07-22.163c-0.11-1.435-0.332-3.087-0.442-4.631c0-1.653-0.11-3.307-0.11-4.961
	c0-17.532,4.521-34.181,13.672-50.057c9.153-15.878,22.054-27.896,38.701-36.055c3.528-1.766,7.168-3.197,10.916-4.301
	c3.748-1.212,7.498-2.205,11.467-3.197c3.748-0.771,7.389-1.323,11.136-1.654C371.132,0.111,374.77,0,378.297,0
	c0.332,0,0.771,0,1.324,0c0.441,0,0.881,0,1.322,0c14.334,0.331,28.226,3.749,41.79,10.034c13.45,6.394,25.137,15.215,34.951,26.461
	l-26.462,19.295c-7.278-7.167-14.886-12.679-23.045-16.649c-8.159-3.859-16.87-5.844-26.021-5.844c-2.976,0-6.064,0.221-9.153,0.552
	c-3.195,0.44-6.394,0.991-9.701,1.764c-13.563,4.189-23.707,12.02-30.652,23.485c-6.836,11.577-10.254,23.706-10.254,36.716
	c0,0.881,0,1.874,0.109,2.977c0.113,0.991,0.332,1.984,0.442,2.977c0,0.552,0.11,1.104,0.22,1.544s0.109,0.992,0.109,1.543
	c0.223,0.442,0.332,0.883,0.442,1.435c0.11,0.55,0.11,1.102,0.11,1.432c2.426,14.224,8.49,25.469,18.412,33.521
	c9.925,8.047,20.621,13.008,32.195,14.663c1.545,0.439,3.309,0.659,5.073,0.771s3.418,0.112,4.961,0.112
	c11.028,0,20.729-2.979,29.44-8.823c8.6-5.952,12.898-14.331,12.898-25.356l0.552-1.216h-44.985V89.751H467.717L467.717,89.751z
	 M127.239,205.745h2.756h0.221h3.968c4.853,0,8.932,4.297,8.932,9.702c0,5.293-4.08,9.59-8.932,9.702h-3.968l0,0h-0.331h-2.646
	V205.745L127.239,205.745z M130.216,208.059v14.775h3.197c4.411-0.112,6.615-3.638,6.615-7.28c0-3.75-2.205-6.836-5.844-7.388
	L130.216,208.059L130.216,208.059z M154.804,205.3c5.955,0,10.694,4.521,10.694,10.146c0,5.62-4.74,10.142-10.694,10.142
	c-5.844,0-10.694-4.521-10.694-10.142C144.109,209.822,148.96,205.3,154.804,205.3L154.804,205.3z M154.804,207.727
	c4.301,0,7.828,3.418,7.828,7.72c0,4.189-3.527,7.607-7.828,7.607c-4.189,0-7.719-3.418-7.719-7.607
	C147.085,211.145,150.614,207.727,154.804,207.727L154.804,207.727z M166.381,205.745h2.866v17.09h5.513v2.314h-5.513h-1.322h-1.544
	V205.745L166.381,205.745z M184.022,205.193c2.205,0,4.301,0.659,6.064,1.763v3.53c-1.435-1.768-3.639-2.871-6.064-2.871
	c-4.301,0-7.719,3.53-7.719,7.832c0,4.189,3.418,7.715,7.719,7.715c2.426,0,4.63-1.099,6.064-2.866v3.638
	c-1.764,1.104-3.86,1.768-6.064,1.768c-5.844,0-10.694-4.634-10.694-10.254C173.328,209.822,178.179,205.193,184.022,205.193
	L184.022,205.193z M193.945,222.834h6.947v2.314h-6.947h-2.977v-2.314v-6.836v-2.319v-5.732v-2.202h2.977h6.947v2.202h-6.947v5.732
	h6.947v2.319h-6.947V222.834L193.945,222.834z M211.808,223.826c-0.331,0.332-0.663,0.552-1.104,0.771
	c-0.331,0.22-0.771,0.332-1.213,0.439c-0.11,0-0.22,0-0.33,0.112c-0.111,0-0.221,0-0.331,0c-0.331,0-0.552-0.112-0.883-0.112
	c-0.331-0.107-0.552-0.22-0.883-0.439c-0.22-0.22-0.44-0.552-0.66-0.884c-0.111-0.327-0.221-0.659-0.331-0.991v-0.112
	c0-0.107,0-0.107,0-0.107c0-0.112,0-0.112,0-0.112c0-0.107,0-0.107,0-0.22l0,0h0.11c0-0.107,0-0.107,0-0.107s0,0,0-0.112
	c0.109-0.552,0.331-0.991,0.771-1.436c0.44-0.327,0.881-0.659,1.323-0.991c-0.22-0.327-0.442-0.659-0.662-0.991
	c-0.221-0.22-0.331-0.659-0.331-0.991v-0.112c0-0.107,0-0.107,0-0.22l0,0l0,0c0-0.112,0-0.112,0-0.112c0.11,0,0.11-0.107,0.11-0.107
	c0.111-0.439,0.332-0.771,0.663-1.104c0.44-0.22,0.771-0.332,1.212-0.332c0,0,0,0,0.11,0l0,0h0.11c0,0,0,0,0.111,0
	c0.44,0,0.992,0.225,1.434,0.552c0.33,0.332,0.55,0.771,0.55,1.436c0,0.552-0.109,0.991-0.441,1.323
	c-0.441,0.439-0.771,0.771-1.212,0.991l2.095,2.534c0.11-0.22,0.331-0.439,0.552-0.771c0.22-0.22,0.33-0.439,0.552-0.659
	l0.661,0.659c-0.11,0.22-0.331,0.444-0.441,0.664s-0.331,0.439-0.552,0.659c0,0,0,0-0.11,0.112c0,0,0,0.107-0.11,0.107l1.543,1.768
	h-1.323L211.808,223.826L211.808,223.826z M209.271,224.158c0.331,0,0.662-0.112,0.992-0.332c0.221-0.22,0.551-0.439,0.773-0.664
	c0.109,0,0.109,0,0.109,0s0,0,0.111-0.107l-2.425-2.759l0,0c0,0.112,0,0.112-0.111,0.112l0,0c-0.11,0.107-0.11,0.107-0.11,0.107
	c-0.221,0.112-0.331,0.225-0.55,0.332c-0.223,0.22-0.331,0.332-0.442,0.552c-0.109,0-0.109,0.112-0.109,0.22
	c-0.111,0.112-0.111,0.22-0.111,0.332c-0.11,0.112-0.11,0.22-0.11,0.22c0,0.112,0,0.22,0,0.332c0,0.439,0.11,0.771,0.442,1.211
	c0.44,0.332,0.771,0.444,1.322,0.444l0,0h0.111l0,0l0,0C209.162,224.158,209.162,224.158,209.271,224.158L209.271,224.158z
	 M208.389,217.322c0,0.107,0,0.107,0,0.107l0,0v0.112l0,0c0,0.22,0,0.439,0.111,0.659c0.11,0.22,0.331,0.444,0.44,0.552
	c0.11,0.112,0.11,0.112,0.221,0.22l0.11,0.112h0.11c0,0,0.11,0,0.11-0.112c0.221-0.107,0.442-0.22,0.663-0.439
	c0.22-0.22,0.331-0.439,0.44-0.771l0,0c0-0.112,0-0.112,0-0.112l0,0c0-0.107,0-0.107,0-0.107c0-0.332-0.11-0.552-0.331-0.771
	c-0.221-0.112-0.44-0.22-0.661-0.22c-0.111,0-0.111,0-0.111,0s0,0-0.11,0l0,0l0,0c-0.22,0-0.441,0-0.662,0.22
	C208.5,216.877,208.389,217.097,208.389,217.322L208.389,217.322z M229.669,205.081c3.859,0,7.277,1.987,9.262,4.854l-2.536,1.323
	c-1.433-2.207-3.86-3.643-6.616-3.643c-4.41,0-7.828,3.53-7.828,7.832c0,4.297,3.418,7.715,7.828,7.715
	c3.639,0,6.505-1.763,6.727-5.513h-6.285v-2.314h6.063c0,0,3.087,0,3.31,0c0,0,0-5.952,0,0.112s-3.31,10.361-9.924,10.361
	c-6.616,0-10.806-4.629-10.806-10.361C218.864,209.709,223.715,205.081,229.669,205.081L229.669,205.081z M237.938,225.149
	l8.05-19.404h1.875l8.047,19.404h-3.086l-2.205-5.513h-7.388l-2.204,5.513H237.938L237.938,225.149z M244.335,217.209l2.644-6.948
	l2.537,6.948H244.335L244.335,217.209z M284.137,225.149l7.939-19.404h1.873l8.049,19.404h-3.086l-2.204-5.513h-7.39l-2.205,5.513
	H284.137L284.137,225.149z M290.422,217.209l2.646-6.948l2.646,6.948H290.422L290.422,217.209z M322.506,225.149l8.05-19.404h1.875
	l8.05,19.404h-3.089l-2.314-5.513h-7.278l-2.204,5.513H322.506L322.506,225.149z M328.902,217.209l2.537-6.948l2.645,6.948H328.902
	L328.902,217.209z M262.857,207.947c1.985,0.22,2.645,0.991,2.645,2.979c0,1.875-1.323,2.866-2.977,2.866h-2.536v-5.845H262.857
	L262.857,207.947L262.857,207.947z M263.078,216.106h0.109c1.434,0,3.97,0.332,3.97,3.53c0,2.534-2.204,3.198-4.3,3.198h0.439
	h-3.308v-6.729h2.536H263.078L263.078,216.106z M259.33,225.149h0.659h4.302l0,0c3.418,0,5.955-2.314,5.955-5.513
	c0-2.539-1.546-4.409-3.75-5.181c1.213-0.776,1.875-2.207,1.875-3.97c0-2.871-1.875-4.741-4.852-4.741c-1.545-0.112-3.198,0-4.741,0
	h-0.112c0,0,0,0-0.109,0l0,0h-1.543v19.404H259.33L259.33,225.149z M277.631,207.947c1.875,0.22,2.537,0.991,2.646,2.979
	c0,1.875-1.323,2.866-2.977,2.866h-2.536v-5.845H277.631L277.631,207.947L277.631,207.947z M277.743,216.106c0.11,0,0.11,0,0.11,0
	c1.433,0,3.967,0.332,3.967,3.53c0,2.534-2.205,3.198-4.299,3.198h0.551h-3.308v-6.729h2.536H277.743L277.743,216.106z
	 M273.993,225.149h0.771h4.302l0,0c3.418,0,5.842-2.314,5.842-5.513c0-2.539-1.543-4.409-3.747-5.181
	c1.323-0.776,1.982-2.207,1.982-3.97c0-2.871-1.982-4.741-4.851-4.741c-1.653-0.112-3.196,0-4.852,0l0,0c-0.109,0-0.109,0-0.109,0
	h-0.11h-1.543v19.404H273.993L273.993,225.149z M303.322,205.745h1.875l13.562,14.331v-14.331h2.646v19.404h-1.985l-13.342-14.224
	v14.224h-2.756V205.745L303.322,205.745z"/>
</svg>
