<svg width="96" height="59" viewBox="0 0 96 59" fill="none" xmlns="http://www.w3.org/2000/svg">
<g clip-path="url(#clip0_4_12)">
<path fill-rule="evenodd" clip-rule="evenodd" d="M0 1.69991H10.2068C12.6507 1.69991 15.0497 1.9301 17.4259 2.41975C19.7793 2.88118 21.9971 4.20615 24.0794 6.3377C26.0256 8.44104 27.5418 11.1205 28.6282 14.3756C29.7372 17.6307 30.3482 20.9727 30.4387 24.4298C30.4841 24.6602 30.5067 24.9197 30.5067 25.1786C30.5067 25.4093 30.5067 25.6685 30.5067 25.928C30.5067 26.0145 30.5067 26.101 30.5067 26.1874C30.5067 26.2449 30.5067 26.3312 30.5067 26.4466C30.4387 30.0474 29.8503 33.5044 28.7413 36.875C27.6551 40.2176 26.0484 42.9543 23.9209 45.1141C22.0429 46.8722 20.0511 47.9947 17.9013 48.5142C15.7741 49.0615 13.5789 49.3497 11.3611 49.4647C10.9991 49.4647 10.6142 49.4647 10.2296 49.4647C9.84472 49.4647 9.46008 49.4647 9.05286 49.4647H0V1.69991ZM7.46831 40.8504C7.71728 40.8504 7.98904 40.8504 8.28316 40.8797C8.57729 40.9077 8.8944 40.9077 9.21111 40.9077C9.32441 40.9077 9.41472 40.9077 9.52802 40.9077C9.61833 40.9077 9.70885 40.9077 9.82214 40.9077C10.0483 40.9664 10.2521 40.9944 10.4785 40.9944C10.7047 40.9944 10.9085 40.9944 11.0894 40.9944C11.4514 40.9944 11.8135 40.9664 12.1758 40.9369C12.5378 40.9369 12.8999 40.8794 13.2848 40.8502C14.3709 40.7355 15.4571 40.4763 16.521 40.1013C17.562 39.6982 18.4897 39.0936 19.2592 38.2872C20.4585 36.991 21.3639 35.2331 21.9749 33.0438C22.586 30.8545 22.9027 28.5782 22.9255 26.2159C22.9255 26.1582 22.9255 26.101 22.9255 26.0432C22.9255 25.9567 22.9255 25.8702 22.9255 25.755C22.9255 25.6685 22.9255 25.582 22.9255 25.4958C22.9255 25.4381 22.9255 25.3516 22.9255 25.2364C22.9027 22.9028 22.586 20.6268 21.9975 18.4662C21.4093 16.2767 20.5265 14.4905 19.3721 13.1078C18.5349 12.0998 17.5618 11.4079 16.453 11.0335C15.3668 10.6591 14.2351 10.4574 13.0582 10.3996C12.8094 10.3421 12.5376 10.3131 12.2887 10.3131C12.0399 10.3131 11.7681 10.3131 11.5192 10.3131H7.46831V40.8504ZM51.5304 48.6863L49.245 45.2583C48.2717 46.4116 47.1403 47.3622 45.8729 48.0817C44.6056 48.8306 43.2931 49.263 41.9803 49.4072C41.8444 49.4352 41.7087 49.4647 41.5728 49.4647C41.437 49.4647 41.3013 49.4647 41.1656 49.4647C40.8713 49.4647 40.5997 49.4354 40.3056 49.4072C40.0115 49.378 39.7399 49.3205 39.4458 49.2925C38.8797 49.1483 38.3142 48.9468 37.7486 48.6866C37.1827 48.4277 36.6622 48.1113 36.1414 47.7081C35.2135 46.9005 34.4896 45.8352 33.9237 44.539C33.358 43.2135 33.0185 41.8598 32.9052 40.4768C32.8827 40.3033 32.8827 40.1311 32.8827 39.9869C32.8827 39.8427 32.8827 39.6984 32.8827 39.5545C32.8827 39.4398 32.8827 39.3248 32.8827 39.1806C32.9052 39.0363 32.9052 38.8921 32.9052 38.7481C32.9052 38.6907 32.928 38.6614 32.928 38.6334C32.9504 38.5747 32.9504 38.5467 32.9504 38.4599C32.9504 38.4025 32.973 38.3157 32.973 38.201C32.9957 38.1143 32.9957 38.0275 32.9957 37.97C33.2899 35.925 33.9686 34.2256 35.055 32.8706C36.1412 31.5169 37.3409 30.3356 38.6307 29.2701C37.8161 28.1756 37.1597 26.9943 36.6168 25.7263C36.0737 24.4878 35.802 23.1626 35.802 21.8373C35.802 21.5781 35.802 21.3187 35.8471 21.0305C35.8697 20.7715 35.8925 20.4831 35.9153 20.2529C35.9604 20.0512 35.983 19.8785 36.0281 19.7053C36.0735 19.5038 36.1187 19.3311 36.1412 19.1579C36.594 17.343 37.4766 16.0468 38.7666 15.2112C40.0568 14.3758 41.4144 13.9437 42.8854 13.9437C44.7185 13.9437 46.3932 14.5773 47.9096 15.845C49.4258 17.0835 50.1955 18.9561 50.1955 21.3759V21.981C50.0822 23.5082 49.6298 24.8329 48.8601 25.928C48.0906 27.0225 47.2534 28.0021 46.3708 28.8951C46.167 29.0394 45.9634 29.1836 45.7821 29.385C45.6013 29.5577 45.4201 29.7307 45.239 29.8747L49.833 36.7028C50.0822 36.4144 50.3086 36.1262 50.5346 35.8377C50.7612 35.5492 50.9648 35.2624 51.1686 34.9446C51.6435 34.3693 52.0961 33.7634 52.5491 33.1585C53.0017 32.5244 53.4317 31.9198 53.8391 31.2856L56.8943 35.4063C56.5546 35.867 56.1927 36.3273 55.8531 36.788C55.5138 37.2499 55.1741 37.7103 54.8348 38.2002C54.4499 38.6609 54.0881 39.1213 53.7484 39.5832C53.4091 40.0439 53.0694 40.5042 52.7301 40.9662L57.7543 48.6861H51.5304V48.6863ZM38.4951 41.5138C38.7892 42.0037 39.0837 42.4069 39.3553 42.7233C39.6492 43.069 39.9435 43.3 40.2602 43.5017C40.5546 43.7031 40.8261 43.8756 41.1202 43.9623C41.4144 44.0491 41.6859 44.1066 41.9801 44.1066C42.5913 44.1066 43.1568 43.9344 43.6773 43.6459C44.198 43.3282 44.6957 42.9546 45.1257 42.5514C45.5104 42.2057 45.963 41.7158 46.4383 41.0817L41.3011 33.275C41.1878 33.3605 41.0749 33.4765 40.939 33.5622C40.8261 33.6489 40.7354 33.7636 40.6449 33.8506C40.1018 34.4552 39.5813 35.1189 39.1059 35.8678C38.6082 36.6166 38.2687 37.395 38.0649 38.2013C38.0195 38.4027 37.9743 38.6044 37.9516 38.8059C37.9064 39.0073 37.9064 39.2383 37.9064 39.44C37.9064 39.8139 37.9516 40.1596 38.0647 40.5053C38.1778 40.851 38.3368 41.1961 38.4951 41.5138ZM42.6139 26.5331C42.659 26.5041 42.6818 26.4754 42.7046 26.4466C42.7497 26.4176 42.7721 26.4176 42.8401 26.3602C42.8628 26.3312 42.908 26.3024 42.9308 26.2449C42.9534 26.2162 42.9759 26.2162 43.0213 26.2162C43.587 25.6978 44.1075 25.1504 44.6054 24.603C45.0804 24.0266 45.3975 23.2778 45.5558 22.3847V21.7224C45.5558 20.7716 45.2844 19.9937 44.7637 19.4176C44.2659 18.8412 43.6999 18.4955 43.089 18.3803C43.0437 18.3803 42.9757 18.3803 42.9308 18.3803C42.8628 18.3803 42.8175 18.3803 42.7497 18.3803C42.7272 18.3803 42.6818 18.3803 42.6367 18.3803C42.6139 18.3803 42.5459 18.3803 42.5006 18.3803C42.0482 18.438 41.5956 18.6975 41.188 19.1291C40.7808 19.5325 40.5318 20.1664 40.4866 21.0017C40.4866 21.0305 40.4641 21.0885 40.4641 21.146C40.4413 21.2037 40.4413 21.2609 40.4413 21.3474C40.4413 21.3762 40.4187 21.4052 40.4187 21.4624C40.3961 21.5201 40.3961 21.5779 40.3961 21.6644C40.3961 22.3845 40.5544 23.0761 40.8711 23.6807C41.1878 24.3146 41.5275 24.9197 41.8895 25.4958C42.0478 25.6685 42.1611 25.8415 42.2744 26.0142C42.3877 26.1874 42.5006 26.3602 42.6139 26.5331ZM96 23.4505V25.0349C96 29.356 95.4341 33.3895 94.3026 37.1632C93.171 40.9369 90.9988 43.9913 87.717 46.3246C86.6762 47.1884 85.5449 47.8223 84.2774 48.3122C83.0328 48.7728 81.7879 49.1185 80.5433 49.32C80.0903 49.3492 79.6603 49.4067 79.2535 49.4347C78.8228 49.4347 78.416 49.4639 78.0088 49.4639C77.7598 49.4639 77.5335 49.4639 77.2849 49.4639C77.0357 49.4639 76.8093 49.4347 76.5601 49.3772C73.5282 49.1475 70.631 48.0809 67.8024 46.2081C64.9962 44.3644 62.7101 41.8587 60.9905 38.7178C60.1307 37.0477 59.4517 35.2323 58.931 33.3315C58.4109 31.4293 58.0712 29.4995 57.8904 27.5406C57.8678 27.1657 57.8222 26.7341 57.7997 26.3306C57.7997 25.8987 57.7771 25.4666 57.7771 25.0344C57.7771 20.4536 58.705 16.1035 60.5833 11.9553C62.462 7.80664 65.1099 4.66653 68.5268 2.53472C69.2509 2.07329 69.998 1.69939 70.7673 1.41093C71.5366 1.09426 72.3063 0.834802 73.1209 0.575609C73.8902 0.374159 74.6375 0.22993 75.4066 0.143445C76.1757 0.0290025 76.9224 0 77.6463 0C77.7145 0 77.8046 0 77.9181 0C78.0086 0 78.0989 0 78.1894 0C81.1315 0.086485 83.9829 0.979554 86.7669 2.62172C89.5276 4.29237 91.9264 6.59716 93.9407 9.53556L88.5093 14.577C87.0155 12.7044 85.4539 11.2642 83.7793 10.2269C82.1046 9.21862 80.3167 8.69997 78.4384 8.69997C77.8276 8.69997 77.1938 8.75771 76.5597 8.8442C75.9039 8.95916 75.2473 9.10313 74.5686 9.3051C71.7847 10.3996 69.7027 12.4457 68.2772 15.4414C66.8741 18.4662 66.1725 21.6354 66.1725 25.0347C66.1725 25.2649 66.1725 25.5243 66.1949 25.8125C66.2181 26.0714 66.263 26.3309 66.2856 26.5903C66.2856 26.7346 66.3082 26.8788 66.3308 26.9938C66.3534 27.1087 66.3531 27.253 66.3531 27.3969C66.3989 27.5124 66.4213 27.6276 66.4439 27.7719C66.4664 27.9156 66.4664 28.0598 66.4664 28.146C66.9644 31.8625 68.209 34.8007 70.2456 36.9045C72.2827 39.0071 74.4781 40.3033 76.8537 40.7357C77.1708 40.8504 77.5328 40.9079 77.8949 40.9372C78.257 40.9664 78.5964 40.9664 78.9132 40.9664C81.1767 40.9664 83.1678 40.1881 84.9558 38.6611C86.721 37.106 87.6031 34.9167 87.6031 32.036L87.7164 31.7183H78.4831V23.4505H96ZM26.1161 53.7579H26.6818H26.7271H27.5416C28.5377 53.7579 29.3749 54.8806 29.3749 56.2928C29.3749 57.6758 28.5375 58.7986 27.5416 58.8278H26.7271H26.6592H26.1161V53.7579V53.7579ZM26.7271 54.3625V58.2229H27.3833C28.2887 58.1937 28.7411 57.2724 28.7411 56.3208C28.7411 55.341 28.2885 54.5347 27.5416 54.3904L26.7271 54.3625ZM31.7739 53.6416C32.9962 53.6416 33.9688 54.8229 33.9688 56.2926C33.9688 57.761 32.996 58.9425 31.7739 58.9425C30.5744 58.9425 29.5789 57.7613 29.5789 56.2926C29.5787 54.8231 30.5744 53.6416 31.7739 53.6416ZM31.7739 54.2757C32.6567 54.2757 33.3806 55.1688 33.3806 56.2928C33.3806 57.3874 32.6567 58.2804 31.7739 58.2804C30.9141 58.2804 30.1895 57.3874 30.1895 56.2928C30.1895 55.1688 30.9139 54.2757 31.7739 54.2757ZM34.1501 53.7579H34.7383V58.2232H35.8699V58.8278H34.7383H34.467H34.1501V53.7579ZM37.7709 53.6136C38.2235 53.6136 38.6537 53.7858 39.0156 54.0743V54.9966C38.7211 54.5347 38.2687 54.2465 37.7709 54.2465C36.8882 54.2465 36.1866 55.1688 36.1866 56.2928C36.1866 57.3874 36.8882 58.3086 37.7709 58.3086C38.2689 58.3086 38.7213 58.0215 39.0156 57.5598V58.5104C38.6535 58.7988 38.2233 58.9723 37.7709 58.9723C36.5714 58.9723 35.576 57.7615 35.576 56.2931C35.576 54.8231 36.5717 53.6136 37.7709 53.6136ZM39.8077 58.2229H41.2335V58.8276H39.8077H39.1966V58.2229V56.4368V55.8309V54.3332V53.7579H39.8077H41.2335V54.3332H39.8077V55.8309H41.2335V56.4368H39.8077V58.2229ZM43.4741 58.4821C43.4061 58.5689 43.338 58.6264 43.2475 58.6836C43.1795 58.7411 43.0892 58.7703 42.9985 58.7983C42.9759 58.7983 42.9534 58.7983 42.9308 58.8276C42.908 58.8276 42.8854 58.8276 42.8628 58.8276C42.7949 58.8276 42.7495 58.7983 42.6816 58.7983C42.6137 58.7703 42.5683 58.7408 42.5004 58.6836C42.4552 58.6261 42.4101 58.5394 42.3649 58.4526C42.3421 58.3672 42.3195 58.2804 42.297 58.1937V58.1644C42.297 58.1365 42.297 58.1365 42.297 58.1365C42.297 58.1072 42.297 58.1072 42.297 58.1072C42.297 58.0792 42.297 58.0792 42.297 58.0497H42.3195C42.3195 58.0218 42.3195 58.0218 42.3195 58.0218C42.3195 58.0218 42.3195 58.0218 42.3195 57.9925C42.3419 57.8483 42.3875 57.7336 42.4778 57.6173C42.5681 57.5318 42.6586 57.4451 42.7493 57.3584C42.7042 57.2729 42.6586 57.1862 42.6135 57.0994C42.5681 57.0419 42.5455 56.9272 42.5455 56.8405V56.8112C42.5455 56.7833 42.5455 56.7833 42.5455 56.7537C42.5455 56.7245 42.5455 56.7245 42.5455 56.7245C42.5681 56.7245 42.5681 56.6965 42.5681 56.6965C42.5909 56.5818 42.6362 56.4951 42.7042 56.4081C42.7945 56.3506 42.8624 56.3213 42.9529 56.3213C42.9529 56.3213 42.9529 56.3213 42.9755 56.3213H42.9981C42.9981 56.3213 42.9981 56.3213 43.0209 56.3213C43.1112 56.3213 43.2245 56.3801 43.3152 56.4655C43.383 56.5523 43.4281 56.667 43.4281 56.8408C43.4281 56.985 43.4057 57.0997 43.3376 57.1864C43.2471 57.3011 43.1793 57.3879 43.0888 57.4454L43.5188 58.1075C43.5414 58.05 43.5868 57.9928 43.6321 57.906C43.6773 57.8485 43.6999 57.7913 43.7454 57.7338L43.8811 57.906C43.8585 57.9635 43.8132 58.022 43.7906 58.0795C43.768 58.137 43.7226 58.1942 43.6773 58.2517C43.6773 58.2517 43.6773 58.2517 43.6547 58.2809C43.6547 58.2809 43.6547 58.3089 43.6321 58.3089L43.9488 58.7709H43.6773L43.4741 58.4821ZM42.9534 58.5689C43.0213 58.5689 43.0892 58.5396 43.157 58.4821C43.2023 58.4247 43.2701 58.3674 43.3156 58.3086C43.338 58.3086 43.338 58.3086 43.338 58.3086C43.338 58.3086 43.338 58.3086 43.3608 58.2807L42.863 57.5598C42.863 57.5891 42.863 57.5891 42.8403 57.5891C42.8177 57.617 42.8177 57.617 42.8177 57.617C42.7723 57.6463 42.7497 57.6758 42.7048 57.7038C42.659 57.7613 42.6369 57.7905 42.6141 57.848C42.5917 57.848 42.5917 57.8773 42.5917 57.9055C42.5689 57.9347 42.5689 57.963 42.5689 57.9922C42.5463 58.0215 42.5463 58.0497 42.5463 58.0497C42.5463 58.079 42.5463 58.1072 42.5463 58.1365C42.5463 58.2512 42.5689 58.3379 42.6371 58.4529C42.7274 58.5396 42.7953 58.5689 42.9084 58.5689H42.9312C42.931 58.5689 42.931 58.5689 42.9534 58.5689ZM42.7723 56.7827C42.7723 56.8107 42.7723 56.8107 42.7723 56.8107V56.84C42.7723 56.8975 42.7723 56.9547 42.7951 57.0122C42.8177 57.0696 42.863 57.1282 42.8854 57.1564C42.908 57.1856 42.908 57.1856 42.9308 57.2139L42.9534 57.2431H42.9759C42.9759 57.2431 42.9985 57.2431 42.9985 57.2139C43.0439 57.1859 43.0892 57.1564 43.1346 57.0992C43.1798 57.0417 43.2025 56.9845 43.2249 56.8977C43.2249 56.8684 43.2249 56.8684 43.2249 56.8684C43.2249 56.8405 43.2249 56.8405 43.2249 56.8405C43.2249 56.7537 43.2023 56.6963 43.157 56.639C43.1116 56.6098 43.0667 56.5816 43.0213 56.5816C42.9985 56.5816 42.9985 56.5816 42.9985 56.5816C42.9985 56.5816 42.9985 56.5816 42.9759 56.5816C42.9308 56.5816 42.8854 56.5816 42.8401 56.639C42.7951 56.6665 42.7723 56.724 42.7723 56.7827ZM47.1401 53.5844C47.9322 53.5844 48.6337 54.1035 49.0411 54.8526L48.5206 55.1983C48.2265 54.6217 47.7283 54.2465 47.1627 54.2465C46.2575 54.2465 45.556 55.1688 45.556 56.2928C45.556 57.4156 46.2575 58.3086 47.1627 58.3086C47.9096 58.3086 48.4978 57.848 48.5434 56.8682H47.2534V56.2636H48.4978C48.4978 56.2636 49.1315 56.2636 49.1772 56.2636C49.1772 56.2636 49.1772 54.7084 49.1772 56.2928C49.1772 57.8773 48.4978 59 47.1403 59C45.7824 59 44.9223 57.7905 44.9223 56.2928C44.9223 54.7936 45.918 53.5844 47.1401 53.5844ZM48.8373 58.8278L50.4896 53.7579H50.8745L52.5261 58.8278H51.8927L51.4401 57.3874H49.9237L49.4713 58.8278H48.8373ZM50.1503 56.7532L50.693 54.9378L51.2137 56.7532H50.1503ZM58.3198 58.8278L59.9493 53.7579H60.3337L61.9858 58.8278H61.3524L60.9 57.3874H59.3832L58.9306 58.8278H58.3198ZM59.6098 56.7532L60.1529 54.9378L60.696 56.7532H59.6098ZM66.1951 58.8278L67.8474 53.7579H68.2322L69.8845 58.8278H69.2505L68.7755 57.3874H67.2817L66.8293 58.8278H66.1951ZM67.5079 56.7532L68.0286 54.9378L68.5715 56.7532H67.5079ZM53.952 54.3332C54.3594 54.3907 54.4949 54.5921 54.4949 55.1116C54.4949 55.6015 54.2234 55.8604 53.8839 55.8604H53.3633V54.3332H53.952V54.3332ZM53.9974 56.465H54.0197C54.3141 56.465 54.8346 56.5518 54.8346 57.3874C54.8346 58.0495 54.3822 58.2229 53.952 58.2229H54.0421H53.3631V56.4648H53.8837H53.9974V56.465ZM53.2281 58.8278H53.3633H54.2463C54.9479 58.8278 55.4686 58.2232 55.4686 57.3874C55.4686 56.724 55.1513 56.2354 54.6989 56.0336C54.9479 55.8309 55.0838 55.457 55.0838 54.9963C55.0838 54.2462 54.6989 53.7576 54.0879 53.7576C53.7708 53.7283 53.4315 53.7576 53.1148 53.7576H53.0918C53.0918 53.7576 53.0918 53.7576 53.0694 53.7576H52.7527V58.8276H53.2281V58.8278ZM56.9844 54.3332C57.3693 54.3907 57.5051 54.5921 57.5275 55.1116C57.5275 55.6015 57.256 55.8604 56.9165 55.8604H56.3959V54.3332H56.9844V54.3332ZM57.0074 56.465C57.03 56.465 57.03 56.465 57.03 56.465C57.3241 56.465 57.8442 56.5518 57.8442 57.3874C57.8442 58.0495 57.3916 58.2229 56.9618 58.2229H57.0749H56.3959V56.4648H56.9165H57.0074V56.465ZM56.2377 58.8278H56.3959H57.2789C57.9805 58.8278 58.478 58.2232 58.478 57.3874C58.478 56.724 58.1613 56.2354 57.7089 56.0336C57.9805 55.8309 58.1158 55.457 58.1158 54.9963C58.1158 54.2462 57.7089 53.7576 57.1201 53.7576C56.7808 53.7283 56.4641 53.7576 56.1242 53.7576C56.1018 53.7576 56.1018 53.7576 56.1018 53.7576H56.0792H55.7625V58.8276H56.2377V58.8278ZM62.2575 53.7579H62.6424L65.426 57.5023V53.7579H65.9691V58.8278H65.5617L62.8232 55.1113V58.8278H62.2575V53.7579V53.7579Z" fill="white"/>
</g>
<defs>
<clipPath id="clip0_4_12">
<rect width="96" height="59" fill="white"/>
</clipPath>
</defs>
</svg>
