<svg width="373" height="92" viewBox="0 0 373 92" fill="none" xmlns="http://www.w3.org/2000/svg">
<path d="M128.191 5.00296C123.047 5.02796 117.928 5.24052 112.847 6.12796C104.434 7.49021 96.1474 10.047 88.7221 14.2842C84.9848 16.422 81.5282 19.422 80.0658 23.5967C72.0154 12.084 58.3158 4.69684 44.1908 5.09671C32.7909 5.78421 21.5785 10.9526 14.3158 19.878C1.81581 34.3027 1.92226 57.7651 14.4721 72.128C24.8846 84.6528 43.2597 90.1656 58.6596 84.4405C72.7846 79.9029 83.3158 66.9966 86.0033 52.5342C87.4281 44.3716 92.2099 36.8965 98.9721 32.0967C106.272 26.9092 115.16 24.2593 124.035 23.5967C124.097 27.9972 124.153 32.3837 123.941 36.7842C118.278 37.0591 112.485 36.1847 106.91 37.4717C99.3969 40.2721 95.1596 48.3097 94.5971 55.9717C104.41 56.0337 114.222 55.9217 124.035 56.0337C124.147 65.9463 124.054 75.8398 124.066 85.7525C130.603 85.7395 137.122 85.7965 143.66 85.7215C143.635 70.9339 143.628 56.1526 143.691 41.3778C158.141 55.0155 171.76 69.5531 186.097 83.3152C194.197 83.928 202.385 83.4022 210.535 83.5652C196.647 68.5403 182.441 53.8095 168.566 38.784C178.128 28.1845 187.76 17.6087 197.347 7.03402C197.572 6.53402 198.028 5.54678 198.253 5.03403C191.291 5.05953 184.328 5.03403 177.378 5.03403C166.041 15.909 155.297 27.4339 143.66 37.9715C143.597 26.9964 143.691 16.0085 143.628 5.03403C138.497 5.13383 133.335 4.97774 128.191 5.00284V5.00296ZM45.2846 23.4405C55.331 23.3466 65.1395 30.8565 66.7533 41.0342C69.3656 52.8716 59.9848 65.4468 47.9721 66.4092C37.6596 67.8218 27.2782 60.5278 24.7533 50.503C21.6162 39.5406 28.7591 27.1713 39.7221 24.2842C41.5482 23.7119 43.4241 23.4578 45.2846 23.4405Z" fill="white"/>
<path d="M203.222 5.10942C209.722 5.02142 216.21 5.09667 222.71 5.04692C223.11 22.8715 222.585 40.7089 222.972 58.5342C223.172 61.6592 225.91 63.5591 228.447 64.8467C249.81 65.9717 271.26 64.7593 292.635 65.4844C292.56 72.0469 292.41 78.6216 292.735 85.1841C278.285 86.0215 263.735 85.2969 249.235 85.5469C240.435 85.2842 231.522 86.2715 222.81 84.6465C214.947 82.2969 208.41 76.4844 204.422 69.3843C203.722 67.1216 202.96 64.8339 203.135 62.4341C203.247 43.3218 203.06 24.2089 203.222 5.10942" fill="white"/>
<path d="M243.66 23.5214C245.597 15.5839 250.097 5.95893 259.335 5.13431C275.235 4.88431 291.147 5.15918 307.047 5.00931C307.772 12.6841 309.322 21.0469 315.285 26.4844C322.935 33.3091 336.247 32.4844 342.672 24.3716C347.097 18.9341 348.622 11.8467 349.247 5.02143C355.485 5.07181 361.735 4.95893 367.972 5.15918V6.20893C367.372 12.7344 366.622 19.4468 363.547 25.3594C358.547 35.2714 349.51 44.1719 338.022 45.4468C338.01 58.8716 338.035 72.2969 338.022 85.709C331.735 85.7593 325.46 85.7593 319.185 85.709C319.222 72.2969 319.11 58.8843 319.26 45.4717C307.685 42.5342 297.847 34.3467 292.81 23.5342C276.422 23.4966 260.047 23.5342 243.66 23.5214" fill="white"/>
<path d="M244.11 37.2089C260.31 37.3091 276.522 37.0214 292.71 37.3467C292.372 43.4966 292.61 49.6592 292.547 55.8091C276.435 56.0214 260.31 55.8091 244.197 55.9092C244.122 49.6719 244.247 43.4341 244.11 37.2089Z" fill="white"/>
</svg>
