<?xml version="1.0" encoding="UTF-8" standalone="no"?>
<!-- Created with Inkscape (http://www.inkscape.org/) -->

<svg
   xmlns:dc="http://purl.org/dc/elements/1.1/"
   xmlns:cc="http://creativecommons.org/ns#"
   xmlns:rdf="http://www.w3.org/1999/02/22-rdf-syntax-ns#"
   xmlns:svg="http://www.w3.org/2000/svg"
   xmlns="http://www.w3.org/2000/svg"
   version="1.1"
   width="372.97205"
   height="91.703262"
   id="svg2"
   xml:space="preserve"><metadata
     id="metadata8"><rdf:RDF><cc:Work
         rdf:about=""><dc:format>image/svg+xml</dc:format><dc:type
           rdf:resource="http://purl.org/dc/dcmitype/StillImage" /><dc:title></dc:title></cc:Work></rdf:RDF></metadata><defs
     id="defs6" /><g
     transform="matrix(1.25,0,0,-1.25,4.2220583,87.409175)"
     id="g10"><g
       transform="scale(0.1,0.1)"
       id="g12"><path
         d="m 123.96875,970.09375 c -5.14373,0.025 -10.26244,0.23756 -15.34375,1.125 -8.41263,1.36225 -16.699625,3.919 -24.125,8.15625 -3.73725,2.13775 -7.193875,5.13775 -8.65625,9.3125 -8.050375,-11.51275 -21.75,-18.89987 -35.875,-18.5 -11.399875,0.6875 -22.612275,5.85587 -29.875,14.78125 -12.5,14.42475 -12.39355,37.88715 0.15625,52.25005 10.412575,12.5248 28.787625,18.0375 44.1875,12.3124 14.125,-4.5376 24.65625,-17.4438 27.34375,-31.9062 1.42475,-8.1626 6.206625,-15.6377 12.96875,-20.4375 7.30038,-5.1875 16.1875,-7.83738 25.0625,-8.5 0.0625,4.4005 0.11862,8.787 -0.0937,13.1875 -5.66262,0.2749 -11.456,-0.5995 -17.03125,0.6875 -7.51275,2.8004 -11.75,10.838 -12.3125,18.5 9.8125,0.062 19.625,-0.05 29.4375,0.062 0.11288,9.9126 0.0191,19.8061 0.0312,29.7188 6.53763,-0.013 13.05625,0.044 19.59375,-0.031 -0.025,-14.7876 -0.0312,-29.5689 0.0312,-44.3437 14.45,13.6377 28.06875,28.1753 42.40625,41.9374 8.1,0.6128 16.2875,0.087 24.4375,0.25 -13.8875,-15.0249 -28.09375,-29.7557 -41.96875,-44.7812 9.5625,-10.5995 19.19375,-21.17537 28.78125,-31.75 0.225,-0.5 0.68125,-1.48725 0.90625,-2 -6.9625,0.0255 -13.925,0 -20.875,0 -11.3375,10.875 -22.08125,22.39988 -33.71875,32.9375 -0.0625,-10.97512 0.0312,-21.963 -0.0312,-32.9375 -5.13125,0.0998 -10.29377,-0.0563 -15.4375,-0.0312 z m -82.90625,18.4375 c 10.046463,-0.0939 19.854973,7.41602 21.46875,17.59375 2.61225,11.8374 -6.7685,24.4126 -18.78125,25.375 -10.3125,1.4126 -20.693875,-5.8814 -23.21875,-15.9062 C 17.394125,1004.6314 24.537,992.26212 35.5,989.375 c 1.826172,-0.57229 3.702044,-0.82636 5.5625,-0.84375 z"
         transform="matrix(8,0,0,-8,0,8420)"
         id="path16"
         style="fill:#000000;fill-opacity:1;fill-rule:nonzero;stroke:none" /><path
         d="m 1592,658.398 c 52,0.704 103.9,0.102 155.9,0.5 3.2,-142.597 -1,-285.296 2.1,-427.898 1.6,-25 23.5,-40.199 43.8,-50.5 170.9,-9 342.5,0.699 513.5,-5.102 -0.6,-52.5 -1.8,-105.0972 0.8,-157.5972 -115.6,-6.6992 -232,-0.9024 -348,-2.9024 -70.4,2.1016 -141.7,-5.79684 -211.4,7.2032 -62.9,18.7968 -115.2,65.2968 -147.1,122.0974 -5.6,18.102 -11.7,36.403 -10.3,55.602 0.9,152.898 -0.6,305.801 0.7,458.597"
         id="path18"
         style="fill:#000000;fill-opacity:1;fill-rule:nonzero;stroke:none" /><path
         d="m 1915.5,511.102 c 15.5,63.5 51.5,140.5 125.4,147.097 127.2,2 254.5,-0.199 381.7,1 5.8,-61.398 18.2,-128.301 65.9,-171.801 61.2,-54.597 167.7,-48 219.1,16.903 35.4,43.5 47.6,100.199 52.6,154.801 49.9,-0.403 99.9,0.5 149.8,-1.102 l 0,-8.398 c -4.8,-52.204 -10.8,-105.903 -35.4,-153.204 -40,-79.296 -112.3,-150.5 -204.2,-160.699 -0.1,-107.398 0.1,-214.801 0,-322.0974 -50.3,-0.4024 -100.5,-0.4024 -150.7,0 0.3,107.2964 -0.6,214.5974 0.6,321.8984 -92.6,23.5 -171.3,89 -211.6,175.5 -131.1,0.301 -262.1,0 -393.2,0.102"
         id="path20"
         style="fill:#000000;fill-opacity:1;fill-rule:nonzero;stroke:none" /><path
         d="m 1919.1,401.602 c 129.6,-0.801 259.3,1.5 388.8,-1.102 -2.7,-49.199 -0.8,-98.5 -1.3,-147.699 -128.9,-1.699 -257.9,0 -386.8,-0.801 -0.6,49.898 0.4,99.801 -0.7,149.602"
         id="path24"
         style="fill:#000000;fill-opacity:1;fill-rule:nonzero;stroke:none" /></g></g></svg>