<svg width="642" height="241" viewBox="0 0 642 241" fill="none" xmlns="http://www.w3.org/2000/svg">
<g clip-path="url(#clip0_3_8)">
<path fill-rule="evenodd" clip-rule="evenodd" d="M314.735 0.000716684C351.834 -0.0407871 380.983 1.71336 412.556 7.08445C447.028 12.9487 479.176 20.8588 505.065 35.6953C506.977 36.7915 508.439 37.5068 510.922 39.1011C521.014 45.5818 533.575 55.9626 535.991 69.8921C537.944 81.1543 532.679 90.3278 526.999 96.8672C521.102 103.654 513.871 108.82 506.154 113.216C474.672 131.154 433.165 140.703 390.076 145.642C370.053 147.937 349.055 149.593 324.409 149.593C300.448 149.593 279.289 148.625 258.876 146.595C217.363 142.468 173.883 133.765 141.165 117.166C133.017 113.034 125.393 108.522 118.548 102.453C112.049 96.6915 105.854 89.5455 104.107 79.7017C101.171 63.1636 112.827 51.1347 122.499 43.7336C132.866 35.8003 146.206 29.1731 159.012 24.388C185.629 14.4392 217.817 7.82909 249.749 3.95091C271.03 1.36668 289.914 0.0275717 314.735 0.000716684ZM315.69 14.8506C286.891 14.8506 259.541 20.0788 235.58 28.8838C223.846 33.1953 213.417 38.4907 204.243 46.1861C196.238 52.9023 186.772 63.6713 188.985 78.4748C190.893 91.2435 201.046 100.351 209.693 106.405C219.347 113.161 230.928 118.27 242.665 122.071C268.023 130.285 296.43 133.823 325.771 133.515C353.646 133.223 382.966 128.389 406.016 119.348C417.383 114.888 428.287 109.429 437.215 101.909C445.436 94.9836 454.164 83.7983 451.93 69.8921C449.929 57.4361 440.43 48.3283 431.221 41.9623C421.094 34.9605 410.358 30.3523 398.251 26.2947C379.713 20.0825 358.649 16.3972 338.441 15.3962C332.103 15.0813 323.764 14.4795 315.961 14.8506C315.871 14.8555 315.78 14.8506 315.69 14.8506V14.8506Z" fill="white"/>
<path fill-rule="evenodd" clip-rule="evenodd" d="M29.0387 177.658C41.3349 177.632 52.2747 177.519 62.2809 179.567C65.6354 180.252 69.4049 181.549 70.5915 184.06C71.7047 186.418 71.2726 190.327 71.2726 196.05C71.2726 206.674 71.2726 216.418 71.2726 227.522C71.2726 229.535 71.5277 232.077 71.0004 233.518C69.361 237.984 60.445 239.04 55.8771 239.512C43.5772 240.783 28.9447 240.699 16.3679 239.512C11.4362 239.045 2.61417 237.987 0.700108 233.788C-0.438811 231.292 0.154449 225.397 0.154449 221.664C0.154449 212.594 0.154449 205.958 0.154449 196.597C0.154449 192.174 -0.508392 186.334 1.24453 183.653C3.02066 180.937 8.85073 179.428 13.6432 178.748C18.9899 177.989 23.0682 177.67 29.0387 177.658ZM27.9486 185.424C27.4555 186.428 27.6752 189.289 27.6752 191.01C27.6752 201.525 27.6752 210.362 27.6752 220.71C27.6752 224.228 26.9819 230.33 28.0841 232.29C29.2255 234.318 32.3797 234.294 35.578 234.334C38.1097 234.365 41.9709 234.518 43.2074 232.427C44.3267 230.532 43.6164 224.882 43.6164 221.119C43.6164 211.482 43.6164 206.698 43.6164 197.413C43.6164 194.863 44.2547 187.658 43.4796 185.697C42.4909 183.193 35.9394 183.359 33.6701 183.517C32.0416 183.629 28.7946 183.702 27.9486 185.424V185.424Z" fill="white"/>
<path fill-rule="evenodd" clip-rule="evenodd" d="M135.442 178.339C146.482 178.337 158.691 178.34 170.183 178.339C178.16 198.61 186.166 218.852 194.026 239.239C183.581 239.239 173.136 239.239 162.69 239.239C160.967 234.24 159.394 229.094 157.649 224.115C151.779 223.898 144.988 223.883 139.121 224.115C137.443 228.933 136.162 234.145 134.762 239.239C127.631 239.239 120.501 239.239 113.371 239.239C118.677 224.095 124.288 208.93 129.72 193.735C131.543 188.634 133.645 182.843 135.442 178.339V178.339ZM140.483 217.03C145.256 216.807 150.97 216.807 155.742 217.03C153.027 209.029 150.412 200.927 147.431 193.19C145.245 201.267 142.683 208.969 140.483 217.03V217.03Z" fill="white"/>
<path fill-rule="evenodd" clip-rule="evenodd" d="M269.912 202.863C276.396 196.163 283.175 188.628 289.94 181.2C290.758 180.3 292.215 178.537 292.937 178.339C294.561 177.894 297.453 178.339 299.341 178.339C305.565 178.339 312.157 178.452 318.277 178.203C318.541 178.937 317.533 179.32 317.187 179.702C310.123 187.48 302.531 195.737 295.252 203.408C302.463 215.317 310.176 227.45 317.052 239.239C306.561 239.239 296.07 239.239 285.58 239.239C280.021 230.719 275.312 221.349 269.912 212.673C269.912 221.528 269.912 230.383 269.912 239.239C260.012 239.239 250.112 239.239 240.212 239.239C240.12 219.573 240.393 198.369 240.075 178.475C249.523 178.159 260.282 178.428 269.502 178.339C270.25 178.26 269.912 179.985 269.912 180.928C269.912 187.853 269.912 195.855 269.912 202.863V202.863Z" fill="white"/>
<path fill-rule="evenodd" clip-rule="evenodd" d="M363.782 178.339C373.636 178.339 383.492 178.339 393.347 178.339C393.346 195.824 393.347 214.034 393.347 231.064C403.156 231.154 413.328 230.883 422.911 231.2C422.911 233.88 422.911 236.559 422.911 239.239C403.109 239.239 383.309 239.239 363.509 239.239C363.824 220.563 363.558 198.459 363.646 178.612C363.372 178.49 363.706 178.014 363.782 178.339Z" fill="white"/>
<path fill-rule="evenodd" clip-rule="evenodd" d="M467.188 178.339C486.581 178.339 505.971 178.339 525.363 178.339C525.363 180.928 525.363 183.517 525.363 186.105C515.917 186.105 506.472 186.105 497.026 186.105C496.707 192.055 496.979 198.593 496.889 204.77C504.156 204.86 511.784 204.589 518.824 204.907C518.876 207.534 518.726 210.048 518.961 211.992C511.648 211.992 504.337 211.992 497.026 211.992C497.026 218.439 497.026 224.888 497.026 231.338C506.153 231.654 515.872 231.383 525.228 231.474C525.228 234.062 525.228 236.65 525.228 239.239C505.836 239.239 486.444 239.239 467.053 239.239C467.053 219.03 467.053 198.82 467.053 178.612C466.994 178.35 467.146 178.119 467.188 178.339Z" fill="white"/>
<path fill-rule="evenodd" clip-rule="evenodd" d="M640.896 178.203C641.012 178.178 641.023 178.257 641.032 178.339C633.001 191.062 623.972 203.969 615.555 216.759C615.643 224.077 615.377 232.465 615.692 239.103C605.972 239.42 595.663 239.148 585.718 239.239C585.711 233.91 585.718 228.283 585.718 222.482C585.718 220.624 586.063 218.512 585.718 216.895C585.416 215.478 583.51 213.544 582.448 211.992C574.802 200.79 567.196 189.369 559.97 178.339C570.46 178.339 580.95 178.339 591.44 178.339C596.081 185.642 600.295 193.372 604.656 200.955C609.226 193.537 613.467 185.788 618.007 178.339C625.592 178.249 633.538 178.52 640.896 178.203Z" fill="white"/>
</g>
<defs>
<clipPath id="clip0_3_8">
<rect width="641.032" height="240.434" fill="white"/>
</clipPath>
</defs>
</svg>
