<svg width="24" height="24" viewBox="0 0 24 24" fill="none" xmlns="http://www.w3.org/2000/svg">
<path fill-rule="evenodd" clip-rule="evenodd" d="M16.4975 5.02984C16.4973 5.07794 16.4959 5.12577 16.4934 5.1733C17.662 5.58328 18.5 6.69624 18.5 8.00491V9.00488H19.5V13.0049H18.5V16.0049C18.5 17.3129 17.663 18.4253 16.4953 18.8359C16.4984 18.8918 16.5 18.9482 16.5 19.0049C16.5 20.6618 15.1569 22.0049 13.5 22.0049H9.5C7.84315 22.0049 6.5 20.6618 6.5 19.0049C6.5 18.9482 6.50158 18.8918 6.50468 18.8359C5.33705 18.4253 4.5 17.3129 4.5 16.0049V8.00491C4.5 6.69762 5.33618 5.58563 6.50286 5.17461C6.49907 5.11028 6.4973 5.04541 6.49763 4.98006C6.50587 3.32323 7.85569 1.98679 9.51252 1.99503L13.5125 2.01494C15.1693 2.02319 16.5058 3.373 16.4975 5.02984ZM8.49764 5.00491H14.4975C14.4922 4.4595 14.0498 4.01764 13.5025 4.01492L9.50257 3.99501C8.95029 3.99226 8.50035 4.43774 8.4976 4.99002L8.49764 5.00491ZM15.7049 7.02592L11.4846 7.00491H7.5C6.94772 7.00491 6.5 7.45263 6.5 8.00491V16.0049C6.5 16.5567 6.94696 17.0042 7.4986 17.0049H15.5014C16.053 17.0042 16.5 16.5567 16.5 16.0049V8.00491C16.5 7.52284 16.1589 7.12045 15.7049 7.02592ZM8.5 19.0049C8.5 19.5572 8.94772 20.0049 9.5 20.0049H13.5C14.0523 20.0049 14.5 19.5572 14.5 19.0049H8.5Z" fill="black"/>
</svg>
