<svg width="24" height="24" viewBox="0 0 24 24" fill="none" xmlns="http://www.w3.org/2000/svg">
<path d="M14.125 13H10.125V15H14.125V13Z" fill="black"/>
<path fill-rule="evenodd" clip-rule="evenodd" d="M8.125 13C9.22957 13 10.125 12.1046 10.125 11C10.125 9.89543 9.22957 9 8.125 9C7.02043 9 6.125 9.89543 6.125 11C6.125 12.1046 7.02043 13 8.125 13ZM8.125 11.5C8.40114 11.5 8.625 11.2761 8.625 11C8.625 10.7239 8.40114 10.5 8.125 10.5C7.84886 10.5 7.625 10.7239 7.625 11C7.625 11.2761 7.84886 11.5 8.125 11.5Z" fill="black"/>
<path fill-rule="evenodd" clip-rule="evenodd" d="M18.125 11C18.125 12.1046 17.2296 13 16.125 13C15.0204 13 14.125 12.1046 14.125 11C14.125 9.89543 15.0204 9 16.125 9C17.2296 9 18.125 9.89543 18.125 11ZM16.625 11C16.625 11.2761 16.4011 11.5 16.125 11.5C15.8489 11.5 15.625 11.2761 15.625 11C15.625 10.7239 15.8489 10.5 16.125 10.5C16.4011 10.5 16.625 10.7239 16.625 11Z" fill="black"/>
<path fill-rule="evenodd" clip-rule="evenodd" d="M2.74847 14.6663C3.7302 16.6421 5.76902 18 8.125 18H16.125C18.565 18 20.6649 16.5435 21.6025 14.4525C22.3718 13.9093 22.8743 13.0133 22.8743 12C22.8743 10.9867 22.3718 10.0907 21.6025 9.54753C20.6649 7.45651 18.565 6 16.125 6H8.125C5.76902 6 3.7302 7.3579 2.74847 9.33375C1.78412 9.83263 1.125 10.8393 1.125 12C1.125 13.1607 1.78412 14.1674 2.74847 14.6663ZM8.125 8H16.125C17.5085 8 18.7279 8.70234 19.4461 9.76991C19.7223 10.4593 19.8743 11.2119 19.8743 12C19.8743 12.7881 19.7223 13.5407 19.4461 14.2301C18.7279 15.2977 17.5085 16 16.125 16H8.125C5.91586 16 4.125 14.2091 4.125 12C4.125 9.79086 5.91586 8 8.125 8Z" fill="black"/>
</svg>
