<svg width="24" height="24" viewBox="0 0 24 24" fill="none" xmlns="http://www.w3.org/2000/svg">
<g clip-path="url(#clip0_15_1049)">
<path d="M14.8287 6.34313L16.2429 4.92892L12.0002 0.686279L7.75759 4.92892L9.1718 6.34313L12.0002 3.51471L14.8287 6.34313Z" fill="black"/>
<path d="M4.92916 16.2426L6.34338 14.8284L3.51495 12L6.34338 9.17156L4.92916 7.75735L0.686523 12L4.92916 16.2426Z" fill="black"/>
<path d="M7.75759 19.0711L12.0002 23.3137L16.2429 19.0711L14.8287 17.6568L12.0002 20.4853L9.1718 17.6568L7.75759 19.0711Z" fill="black"/>
<path d="M17.6571 9.17156L20.4855 12L17.6571 14.8284L19.0713 16.2426L23.3139 12L19.0713 7.75735L17.6571 9.17156Z" fill="black"/>
<path fill-rule="evenodd" clip-rule="evenodd" d="M12.0002 8C14.2094 8 16.0002 9.79086 16.0002 12C16.0002 14.2091 14.2094 16 12.0002 16C9.79111 16 8.00024 14.2091 8.00024 12C8.00024 9.79086 9.79111 8 12.0002 8ZM12.0002 10C13.1048 10 14.0002 10.8954 14.0002 12C14.0002 13.1046 13.1048 14 12.0002 14C10.8957 14 10.0002 13.1046 10.0002 12C10.0002 10.8954 10.8957 10 12.0002 10Z" fill="black"/>
</g>
<defs>
<clipPath id="clip0_15_1049">
<rect width="24" height="24" fill="white"/>
</clipPath>
</defs>
</svg>
