<svg width="24" height="24" viewBox="0 0 24 24" fill="none" xmlns="http://www.w3.org/2000/svg">
<path d="M12.984 4.99268C12.984 4.44039 13.4318 3.99268 13.984 3.99268C14.3414 3.99268 14.655 4.18016 14.8319 4.46214L17.5195 7.14976C17.91 7.54029 17.91 8.17345 17.5195 8.56398C17.129 8.9545 16.4958 8.9545 16.1053 8.56398L14.984 7.44275V14.9927C14.984 15.545 14.5363 15.9927 13.984 15.9927C13.4318 15.9927 12.984 15.545 12.984 14.9927V5.04213C12.9839 5.033 12.9839 5.02388 12.984 5.01476V4.99268Z" fill="black"/>
<path d="M11.0158 19.0076C11.0158 19.5599 10.5681 20.0076 10.0158 20.0076C9.65844 20.0076 9.34484 19.8201 9.16801 19.5381L6.48039 16.8505C6.08987 16.46 6.08987 15.8268 6.48039 15.4363C6.87092 15.0457 7.50408 15.0457 7.89461 15.4363L9.01583 16.5575V9.00757C9.01583 8.45528 9.46355 8.00757 10.0158 8.00757C10.5681 8.00757 11.0158 8.45528 11.0158 9.00757V18.9581C11.016 18.9672 11.016 18.9764 11.0158 18.9855V19.0076Z" fill="black"/>
</svg>
