<svg width="24" height="24" viewBox="0 0 24 24" fill="none" xmlns="http://www.w3.org/2000/svg">
<path d="M4.99268 11.0158C4.44039 11.0158 3.99268 10.5681 3.99268 10.0158C3.99268 9.65844 4.18016 9.34484 4.46214 9.16801L7.14976 6.48039C7.54029 6.08987 8.17345 6.08987 8.56398 6.48039C8.9545 6.87092 8.9545 7.50408 8.56398 7.89461L7.44275 9.01583L14.9927 9.01583C15.545 9.01583 15.9927 9.46355 15.9927 10.0158C15.9927 10.5681 15.545 11.0158 14.9927 11.0158L5.04213 11.0158C5.033 11.016 5.02388 11.016 5.01476 11.0158H4.99268Z" fill="black"/>
<path d="M19.0076 12.984C19.5599 12.984 20.0076 13.4318 20.0076 13.984C20.0076 14.3414 19.8201 14.655 19.5381 14.8319L16.8505 17.5195C16.46 17.91 15.8268 17.91 15.4363 17.5195C15.0457 17.129 15.0457 16.4958 15.4363 16.1053L16.5575 14.984H9.00757C8.45528 14.984 8.00757 14.5363 8.00757 13.984C8.00757 13.4318 8.45528 12.984 9.00757 12.984L18.9581 12.984C18.9672 12.9839 18.9764 12.9839 18.9855 12.984H19.0076Z" fill="black"/>
</svg>
