<svg width="24" height="24" viewBox="0 0 24 24" fill="none" xmlns="http://www.w3.org/2000/svg">
<path d="M12.984 15C12.984 15.5523 13.4318 16 13.984 16C14.3414 16 14.655 15.8125 14.8319 15.5305L17.5195 12.8429C17.91 12.4524 17.91 11.8192 17.5195 11.4287C17.129 11.0382 16.4958 11.0382 16.1053 11.4287L14.984 12.5499L14.984 5C14.984 4.44771 14.5363 4 13.984 4C13.4318 4 12.984 4.44772 12.984 5L12.984 14.9506C12.9839 14.9597 12.9839 14.9688 12.984 14.9779V15Z" fill="black"/>
<path d="M11.0158 9C11.0158 8.44771 10.5681 8 10.0158 8C9.65844 8 9.34484 8.18748 9.16801 8.46947L6.48039 11.1571C6.08987 11.5476 6.08987 12.1808 6.48039 12.5713C6.87092 12.9618 7.50408 12.9618 7.89461 12.5713L9.01583 11.4501L9.01583 19C9.01583 19.5523 9.46355 20 10.0158 20C10.5681 20 11.0158 19.5523 11.0158 19L11.0158 9.04945C11.016 9.04033 11.016 9.03121 11.0158 9.02208V9Z" fill="black"/>
</svg>
