<svg width="24" height="24" viewBox="0 0 24 24" fill="none" xmlns="http://www.w3.org/2000/svg">
<path fill-rule="evenodd" clip-rule="evenodd" d="M7.75781 5.23075L12.0324 1.02026L16.2428 5.29489L14.818 6.69839L13.0144 4.86733L12.943 17.1555C14.1057 17.5731 14.9348 18.6881 14.9286 19.9939C14.9207 21.6508 13.5712 22.9875 11.9144 22.9797C10.2576 22.9718 8.9208 21.6223 8.92866 19.9655C8.93486 18.6589 9.77538 17.5514 10.943 17.1454L11.0146 4.83014L9.16131 6.6556L7.75781 5.23075ZM11.9334 18.9797C11.3811 18.9771 10.9313 19.4227 10.9286 19.9749C10.926 20.5272 11.3716 20.9771 11.9239 20.9797C12.4762 20.9823 12.926 20.5367 12.9286 19.9844C12.9312 19.4322 12.4857 18.9823 11.9334 18.9797Z" fill="black"/>
</svg>
