<svg width="24" height="24" viewBox="0 0 24 24" fill="none" xmlns="http://www.w3.org/2000/svg">
<path d="M4.99268 12.984C4.44039 12.984 3.99268 13.4318 3.99268 13.984C3.99268 14.3414 4.18016 14.655 4.46214 14.8319L7.14976 17.5195C7.54029 17.91 8.17345 17.91 8.56398 17.5195C8.9545 17.129 8.9545 16.4958 8.56398 16.1053L7.44275 14.984H14.9927C15.545 14.984 15.9927 14.5363 15.9927 13.984C15.9927 13.4318 15.545 12.984 14.9927 12.984L5.04213 12.984C5.033 12.9839 5.02388 12.9839 5.01476 12.984H4.99268Z" fill="black"/>
<path d="M19.0076 11.0158C19.5599 11.0158 20.0076 10.5681 20.0076 10.0158C20.0076 9.65844 19.8201 9.34484 19.5381 9.16801L16.8505 6.48039C16.46 6.08987 15.8268 6.08987 15.4363 6.48039C15.0457 6.87092 15.0457 7.50408 15.4363 7.89461L16.5575 9.01583L9.00757 9.01583C8.45528 9.01583 8.00757 9.46355 8.00757 10.0158C8.00757 10.5681 8.45528 11.0158 9.00757 11.0158L18.9581 11.0158C18.9672 11.016 18.9764 11.016 18.9855 11.0158H19.0076Z" fill="black"/>
</svg>
