<svg width="24" height="24" viewBox="0 0 24 24" fill="none" xmlns="http://www.w3.org/2000/svg">
<path fill-rule="evenodd" clip-rule="evenodd" d="M18.7299 7.75732L22.9797 11.9928L18.7441 16.2426L17.3275 14.8308L19.1418 13.0103L6.85345 13.0524C6.44659 14.219 5.33935 15.0583 4.03349 15.0642C2.37666 15.0716 1.02749 13.7345 1.02005 12.0777C1.01261 10.4208 2.34971 9.07167 4.00655 9.06423C5.3131 9.05836 6.42832 9.88861 6.84512 11.0524L19.1605 11.0102L17.318 9.17392L18.7299 7.75732ZM5.02001 12.0597C5.01753 11.5074 4.56781 11.0617 4.01553 11.0642C3.46325 11.0667 3.01755 11.5164 3.02003 12.0687C3.02251 12.621 3.47223 13.0667 4.02451 13.0642C4.57679 13.0617 5.02249 12.612 5.02001 12.0597Z" fill="black"/>
</svg>
