<svg width="24" height="24" viewBox="0 0 24 24" fill="none" xmlns="http://www.w3.org/2000/svg">
<path fill-rule="evenodd" clip-rule="evenodd" d="M10.9995 6.84989C9.83381 6.43831 8.99856 5.32683 8.99856 4.02026C8.99856 2.36341 10.3417 1.02026 11.9986 1.02026C13.6554 1.02026 14.9986 2.36341 14.9986 4.02026C14.9986 5.32613 14.1642 6.43713 12.9995 6.84923L13.0126 19.1376L14.8249 17.3151L16.243 18.7254L12.0123 22.98L7.75781 18.7492L9.16806 17.3311L11.0126 19.1653L10.9995 6.84989ZM11.9986 5.02026C11.4463 5.02026 10.9986 4.57255 10.9986 4.02026C10.9986 3.46798 11.4463 3.02026 11.9986 3.02026C12.5508 3.02026 12.9986 3.46798 12.9986 4.02026C12.9986 4.57255 12.5508 5.02026 11.9986 5.02026Z" fill="black"/>
</svg>
