<svg width="24" height="24" viewBox="0 0 24 24" fill="none" xmlns="http://www.w3.org/2000/svg">
<path fill-rule="evenodd" clip-rule="evenodd" d="M5.27031 7.75732L1.02051 11.9928L5.25607 16.2426L6.67267 14.8308L4.85831 13.0103L17.1467 13.0524C17.5535 14.219 18.6608 15.0583 19.9666 15.0642C21.6235 15.0716 22.9726 13.7345 22.9801 12.0777C22.9875 10.4208 21.6504 9.07167 19.9936 9.06423C18.687 9.05836 17.5718 9.88861 17.155 11.0524L4.83964 11.0102L6.68213 9.17392L5.27031 7.75732ZM18.9801 12.0597C18.9826 11.5074 19.4323 11.0617 19.9846 11.0642C20.5369 11.0667 20.9826 11.5164 20.9801 12.0687C20.9776 12.621 20.5279 13.0667 19.9756 13.0642C19.4233 13.0617 18.9776 12.612 18.9801 12.0597Z" fill="black"/>
</svg>
