<svg width="24" height="24" viewBox="0 0 24 24" fill="none" xmlns="http://www.w3.org/2000/svg">
<path d="M13.146 11.0499L12.9717 9.05752L15.3463 8.84977C14.4472 7.98322 13.2243 7.4503 11.877 7.4503C9.11553 7.4503 6.87695 9.68888 6.87695 12.4503C6.87695 15.2117 9.11553 17.4503 11.877 17.4503C13.6977 17.4503 15.2912 16.4771 16.1655 15.0224L18.1682 15.5231C17.0302 17.8487 14.6406 19.4503 11.877 19.4503C8.01096 19.4503 4.87695 16.3163 4.87695 12.4503C4.87695 8.58431 8.01096 5.4503 11.877 5.4503C13.8234 5.4503 15.5843 6.24474 16.8531 7.52706L16.6078 4.72412L18.6002 4.5498L19.1232 10.527L13.146 11.0499Z" fill="black"/>
</svg>
