<svg width="24" height="24" viewBox="0 0 24 24" fill="none" xmlns="http://www.w3.org/2000/svg">
<path d="M7.18224 9.17154L5.76803 7.75732L1.52539 12L5.76803 16.2426L7.18224 14.8284L4.35382 12L7.18224 9.17154Z" fill="black"/>
<path d="M16.8184 14.8284L18.2326 16.2426L22.4753 12L18.2326 7.75733L16.8184 9.17155L19.6468 12L16.8184 14.8284Z" fill="black"/>
<path fill-rule="evenodd" clip-rule="evenodd" d="M15.0002 12C15.0002 13.6569 13.6571 15 12.0002 15C10.3434 15 9.00024 13.6569 9.00024 12C9.00024 10.3431 10.3434 9 12.0002 9C13.6571 9 15.0002 10.3431 15.0002 12ZM13.0002 12C13.0002 12.5523 12.5525 13 12.0002 13C11.448 13 11.0002 12.5523 11.0002 12C11.0002 11.4477 11.448 11 12.0002 11C12.5525 11 13.0002 11.4477 13.0002 12Z" fill="black"/>
</svg>
