<svg width="24" height="24" viewBox="0 0 24 24" fill="none" xmlns="http://www.w3.org/2000/svg">
<path d="M5.33936 4.46777H7.33936V7.02487C8.52937 6.08978 10.03 5.53207 11.6608 5.53207C15.5268 5.53207 18.6608 8.66608 18.6608 12.5321C18.6608 16.3981 15.5268 19.5321 11.6608 19.5321C9.51031 19.5321 7.58632 18.5623 6.30225 17.0363L7.92157 15.8515C8.83747 16.8825 10.1733 17.5321 11.6608 17.5321C14.4222 17.5321 16.6608 15.2935 16.6608 12.5321C16.6608 9.77065 14.4222 7.53207 11.6608 7.53207C10.574 7.53207 9.56811 7.87884 8.74785 8.46777L11.3394 8.46777V10.4678H5.33936V4.46777Z" fill="black"/>
</svg>
