<svg width="24" height="24" viewBox="0 0 24 24" fill="none" xmlns="http://www.w3.org/2000/svg">
<path d="M16.2422 6.34314C16.6327 5.95262 17.2659 5.95262 17.6564 6.34314C18.0469 6.73366 18.0469 7.36683 17.6564 7.75735L7.75691 17.6568C7.36639 18.0474 6.73322 18.0474 6.3427 17.6568C5.95217 17.2663 5.95217 16.6332 6.3427 16.2426L16.2422 6.34314Z" fill="black"/>
<path d="M9.87823 9.87867C9.09718 10.6597 7.83085 10.6597 7.0498 9.87867C6.26876 9.09763 6.26876 7.8313 7.0498 7.05025C7.83085 6.2692 9.09718 6.2692 9.87823 7.05025C10.6593 7.8313 10.6593 9.09763 9.87823 9.87867Z" fill="black"/>
<path d="M14.1209 16.9497C14.9019 17.7308 16.1683 17.7308 16.9493 16.9497C17.7303 16.1687 17.7303 14.9024 16.9493 14.1213C16.1683 13.3403 14.9019 13.3403 14.1209 14.1213C13.3398 14.9024 13.3398 16.1687 14.1209 16.9497Z" fill="black"/>
</svg>
