<svg width="24" height="24" viewBox="0 0 24 24" fill="none" xmlns="http://www.w3.org/2000/svg">
<path fill-rule="evenodd" clip-rule="evenodd" d="M12 8.95452L17.6352 7.82748C19.0102 7.55247 20 6.34514 20 4.94286C20 3.08649 18.3017 1.69418 16.4813 2.05825L12.4117 2.87218C11.0094 3.15264 10 4.38388 10 5.81393V13.8896C9.41165 13.5493 8.72857 13.3545 8 13.3545C5.79086 13.3545 4 15.1454 4 17.3545C4 19.5637 5.79086 21.3545 8 21.3545C10.2091 21.3545 12 19.5637 12 17.3545V8.95452ZM16.8736 4.01941L12.8039 4.83335C12.3365 4.92683 12 5.33725 12 5.81393V6.91491L17.2429 5.86632C17.6831 5.77828 18 5.39177 18 4.94286C18 4.34858 17.4563 3.90286 16.8736 4.01941ZM10 17.3545C10 16.2499 9.10457 15.3545 8 15.3545C6.89543 15.3545 6 16.2499 6 17.3545C6 18.4591 6.89543 19.3545 8 19.3545C9.10457 19.3545 10 18.4591 10 17.3545Z" fill="black"/>
</svg>
