<svg width="24" height="24" viewBox="0 0 24 24" fill="none" xmlns="http://www.w3.org/2000/svg">
<path d="M15.8789 4.87866H3.87891V6.87866H15.8789V4.87866Z" fill="black"/>
<path d="M15.8789 8.87866H3.87891V10.8787H15.8789V8.87866Z" fill="black"/>
<path d="M3.87891 12.8787H11.8789V14.8787H3.87891V12.8787Z" fill="black"/>
<path fill-rule="evenodd" clip-rule="evenodd" d="M13.7576 12.7573C12.586 13.9289 12.586 15.8284 13.7576 17C14.6812 17.9236 16.0572 18.1191 17.1724 17.5864L18.7073 19.1213L20.1215 17.7071L18.5866 16.1722C19.1193 15.057 18.9238 13.681 18.0002 12.7573C16.8286 11.5858 14.9291 11.5858 13.7576 12.7573ZM15.1718 15.5858C15.5623 15.9763 16.1955 15.9763 16.586 15.5858C16.9765 15.1952 16.9765 14.5621 16.586 14.1716C16.1955 13.781 15.5623 13.781 15.1718 14.1716C14.7812 14.5621 14.7812 15.1952 15.1718 15.5858Z" fill="black"/>
</svg>
