<svg width="24" height="24" viewBox="0 0 24 24" fill="none" xmlns="http://www.w3.org/2000/svg">
<path d="M14.8284 12.4813L16.2426 11.0671L12 6.82444L7.75732 11.0671L9.17154 12.4813L12 9.65287L14.8284 12.4813Z" fill="black"/>
<path d="M14.8284 16.7239L16.2426 15.3097L12 11.0671L7.75732 15.3097L9.17154 16.7239L12 13.8955L14.8284 16.7239Z" fill="black"/>
<path fill-rule="evenodd" clip-rule="evenodd" d="M23 4.77412C23 2.56498 21.2091 0.774117 19 0.774117H5C2.79086 0.774117 1 2.56498 1 4.77412V18.7741C1 20.9833 2.79086 22.7741 5 22.7741H19C21.2091 22.7741 23 20.9833 23 18.7741V4.77412ZM19 2.77412H5C3.89543 2.77412 3 3.66955 3 4.77412V18.7741C3 19.8787 3.89543 20.7741 5 20.7741H19C20.1046 20.7741 21 19.8787 21 18.7741V4.77412C21 3.66955 20.1046 2.77412 19 2.77412Z" fill="black"/>
</svg>
