<svg width="24" height="24" viewBox="0 0 24 24" fill="none" xmlns="http://www.w3.org/2000/svg">
<path d="M11.939 9.76484C11.7056 10.2654 11.1106 10.4819 10.61 10.2485C10.1095 10.0151 9.89294 9.42014 10.1263 8.9196C10.3598 8.41906 10.9547 8.2025 11.4553 8.43591C11.9558 8.66932 12.1724 9.2643 11.939 9.76484Z" fill="black"/>
<path d="M8.91956 13.8738C9.4201 14.1072 10.0151 13.8906 10.2485 13.3901C10.4819 12.8895 10.2653 12.2945 9.7648 12.0611C9.26426 11.8277 8.66928 12.0443 8.43587 12.5448C8.20247 13.0454 8.41902 13.6404 8.91956 13.8738Z" fill="black"/>
<path d="M13.8737 15.0805C13.6403 15.5811 13.0453 15.7976 12.5448 15.5642C12.0443 15.3308 11.8277 14.7358 12.0611 14.2353C12.2945 13.7348 12.8895 13.5182 13.39 13.7516C13.8906 13.985 14.1071 14.58 13.8737 15.0805Z" fill="black"/>
<path d="M14.2353 11.939C14.7358 12.1724 15.3308 11.9558 15.5642 11.4553C15.7976 10.9548 15.581 10.3598 15.0805 10.1264C14.58 9.89298 13.985 10.1095 13.7516 10.6101C13.5182 11.1106 13.7347 11.7056 14.2353 11.939Z" fill="black"/>
<path fill-rule="evenodd" clip-rule="evenodd" d="M17.0715 1.12438C14.0682 -0.276058 10.4983 1.02327 9.0979 4.02651L4.02648 14.9022C2.62604 17.9054 3.92537 21.4753 6.92861 22.8758C9.93185 24.2762 13.5017 22.9769 14.9022 19.9736L19.9736 9.09793C21.374 6.09469 20.0747 2.52481 17.0715 1.12438ZM13.9348 17.3158L17.3157 10.0653L10.0653 6.68437L6.68433 13.9348L13.9348 17.3158ZM13.0896 19.1284L5.83909 15.7474C4.90547 17.7496 5.77169 20.1295 7.77385 21.0631C9.77601 21.9968 12.1559 21.1305 13.0896 19.1284ZM16.2262 2.93699C18.2284 3.87061 19.0946 6.25054 18.161 8.2527L10.9105 4.87175C11.8441 2.86959 14.2241 2.00337 16.2262 2.93699Z" fill="black"/>
</svg>
