<svg width="24" height="24" viewBox="0 0 24 24" fill="none" xmlns="http://www.w3.org/2000/svg">
<path fill-rule="evenodd" clip-rule="evenodd" d="M17.9517 15.5709C17.7699 17.2186 16.9209 18.6653 15.6808 19.6349C15.3324 20.4691 14.7096 21.1601 13.9251 21.595C13.7028 22.4573 12.92 23.0944 11.9883 23.0944C11.0566 23.0944 10.2737 22.4573 10.0515 21.595C9.26709 21.1601 8.64429 20.4693 8.29584 19.6352C7.05992 18.669 6.2124 17.2289 6.02657 15.5882C4.93564 16.416 3.37992 16.4118 2.28655 15.4943C1.01733 14.4293 0.851775 12.5371 1.91678 11.2678L6.01002 6.38969C6.27162 3.31747 8.84822 0.905518 11.9882 0.905518C15.117 0.905518 17.6864 3.3004 17.9634 6.35705L22.0841 11.2678C23.1491 12.5371 22.9835 14.4293 21.7143 15.4943C20.6134 16.4181 19.0436 16.416 17.9517 15.5709ZM15.6258 12.9055L13.9476 10.9055H10.0532L8.37504 12.9055H15.6258ZM17.9882 12.6094L19.0199 13.839C19.3749 14.2621 20.0056 14.3172 20.4287 13.9622C20.8518 13.6072 20.907 12.9765 20.552 12.5534L17.9882 9.49797V12.6094ZM15.9882 8.90552V6.90552C15.9882 4.69638 14.1973 2.90552 11.9882 2.90552C9.77902 2.90552 7.98816 4.69638 7.98816 6.90552V8.90552H15.9882ZM4.98096 13.839L5.98816 12.6386V9.5272L3.44887 12.5534C3.09387 12.9765 3.14905 13.6072 3.57213 13.9622C3.9952 14.3172 4.62596 14.2621 4.98096 13.839ZM11.9882 18.9055C9.77902 18.9055 7.98816 17.1147 7.98816 14.9055H15.9882C15.9882 17.1147 14.1973 18.9055 11.9882 18.9055Z" fill="black"/>
</svg>
