<svg width="24" height="24" viewBox="0 0 24 24" fill="none" xmlns="http://www.w3.org/2000/svg">
<path fill-rule="evenodd" clip-rule="evenodd" d="M20.5468 3.67156C20.1563 3.28103 19.5231 3.28103 19.1326 3.67156L13.7687 9.03549H2V11.0355H2.00842C2.22563 16.3662 6.61591 20.6212 12 20.6212C17.3841 20.6212 21.7744 16.3662 21.9916 11.0355H22V9.03549H16.5971L20.5468 5.08577C20.9374 4.69524 20.9374 4.06208 20.5468 3.67156ZM14.1762 11.0355C14.1806 11.0355 14.1851 11.0355 14.1896 11.0355H19.9895C19.7739 15.2612 16.2793 18.6212 12 18.6212C7.72066 18.6212 4.22609 15.2612 4.01054 11.0355H14.1762Z" fill="black"/>
</svg>
