<svg width="24" height="24" viewBox="0 0 24 24" fill="none" xmlns="http://www.w3.org/2000/svg">
<path fill-rule="evenodd" clip-rule="evenodd" d="M7.75732 6.34323L12 2.10059L16.2426 6.34323L12 10.5859L7.75732 6.34323ZM10.5858 6.34323L12 4.92901L13.4142 6.34323L12 7.75744L10.5858 6.34323Z" fill="black"/>
<path fill-rule="evenodd" clip-rule="evenodd" d="M2.10059 12L6.34323 7.75739L10.5859 12L6.34323 16.2427L2.10059 12ZM4.92901 12L6.34323 10.5858L7.75744 12L6.34323 13.4142L4.92901 12Z" fill="black"/>
<path fill-rule="evenodd" clip-rule="evenodd" d="M13.4143 12L17.6569 16.2427L21.8996 12L17.6569 7.75739L13.4143 12ZM17.6569 10.5858L16.2427 12L17.6569 13.4142L19.0712 12L17.6569 10.5858Z" fill="black"/>
<path fill-rule="evenodd" clip-rule="evenodd" d="M7.75732 17.657L12 13.4144L16.2426 17.657L12 21.8996L7.75732 17.657ZM10.5858 17.657L12 16.2428L13.4142 17.657L12 19.0712L10.5858 17.657Z" fill="black"/>
</svg>
