<svg width="24" height="24" viewBox="0 0 24 24" fill="none" xmlns="http://www.w3.org/2000/svg">
<path d="M7.71676 5.72315C6.71568 6.18996 6.28257 7.37992 6.74939 8.381C7.2162 9.38208 8.40616 9.81519 9.40724 9.34838L20.2829 4.27696C21.284 3.81015 21.7171 2.62019 21.2503 1.61911C20.7835 0.618028 19.5935 0.184918 18.5925 0.651729L7.71676 5.72315Z" fill="black"/>
<path d="M4.74939 15.381C4.28257 14.3799 4.71568 13.19 5.71676 12.7231L16.5925 7.65173C17.5935 7.18492 18.7835 7.61803 19.2503 8.61911C19.7171 9.62019 19.284 10.8101 18.2829 11.277L7.40724 16.3484C6.40616 16.8152 5.2162 16.3821 4.74939 15.381Z" fill="black"/>
<path d="M2.74939 22.381C2.28257 21.3799 2.71568 20.19 3.71676 19.7231L14.5925 14.6517C15.5935 14.1849 16.7835 14.618 17.2503 15.6191C17.7171 16.6202 17.284 17.8101 16.2829 18.277L5.40724 23.3484C4.40616 23.8152 3.2162 23.3821 2.74939 22.381Z" fill="black"/>
</svg>
