<svg width="24" height="24" viewBox="0 0 24 24" fill="none" xmlns="http://www.w3.org/2000/svg">
<path d="M18.5535 15.5355C17.6487 16.4404 16.3987 17 15.0179 17C13.1415 17 11.5065 15.9664 10.6513 14.4374H13.0322L13.7284 12.5625H10.0492C10.0286 12.3779 10.0179 12.1902 10.0179 12C10.0179 11.8098 10.0286 11.6221 10.0492 11.4374H14.3362L15.0323 9.5625H10.6513C11.5066 8.0336 13.1416 7 15.0179 7C16.3987 7 17.6487 7.55964 18.5535 8.46447L19.9677 7.05025C18.7009 5.7835 16.9509 5 15.0179 5C12.0092 5 9.44375 6.89827 8.45401 9.5625H6.03234L5.33618 11.4374H8.04022C8.02546 11.623 8.01794 11.8106 8.01794 12C8.01794 12.1894 8.02546 12.3769 8.04021 12.5625H4.72839L4.03223 14.4374H8.45398C9.44371 17.1017 12.0091 19 15.0179 19C16.9509 19 18.7009 18.2165 19.9677 16.9497L18.5535 15.5355Z" fill="black"/>
</svg>
