<svg width="24" height="24" viewBox="0 0 24 24" fill="none" xmlns="http://www.w3.org/2000/svg">
<path fill-rule="evenodd" clip-rule="evenodd" d="M4.70822 15.4397C5.92651 16.2928 7.32208 16.7038 8.70449 16.7063C9.17965 18.0045 10.0432 19.1753 11.2614 20.0284C14.4283 22.2458 18.7931 21.4762 21.0105 18.3093C23.228 15.1425 22.4584 10.7777 19.2915 8.56024C18.0732 7.70719 16.6777 7.29621 15.2952 7.29371C14.8201 5.99552 13.9566 4.82467 12.7383 3.97161C9.57146 1.75417 5.20663 2.52381 2.98919 5.69064C0.771749 8.85748 1.54139 13.2223 4.70822 15.4397ZM5.85537 13.8014C6.60148 14.3239 7.44069 14.6142 8.28724 14.6875C8.201 13.1725 8.60451 11.6187 9.54241 10.2793C10.4803 8.9398 11.8024 8.0292 13.2555 7.59209C12.8971 6.82166 12.3372 6.13235 11.5911 5.60992C9.32911 4.02603 6.21138 4.57577 4.6275 6.8378C3.04361 9.09982 3.59335 12.2176 5.85537 13.8014ZM18.1444 10.1985C17.3983 9.67611 16.5591 9.38581 15.7125 9.31251C15.7987 10.8275 15.3952 12.3813 14.4573 13.7207C13.5194 15.0602 12.1974 15.9708 10.7443 16.4079C11.1027 17.1783 11.6625 17.8676 12.4086 18.3901C14.6706 19.9739 17.7884 19.4242 19.3722 17.1622C20.9561 14.9002 20.4064 11.7824 18.1444 10.1985Z" fill="black"/>
</svg>
