<svg width="24" height="24" viewBox="0 0 24 24" fill="none" xmlns="http://www.w3.org/2000/svg">
<path fill-rule="evenodd" clip-rule="evenodd" d="M3.04977 10.0151C2.79153 9.30708 2.94644 8.48233 3.5145 7.91427L9.87846 1.55031C11.05 0.378738 12.9495 0.378738 14.1211 1.55031L20.4851 7.91427C21.0532 8.48239 21.2081 9.30727 20.9497 10.0154C20.9821 10.1139 20.9997 10.2191 20.9997 10.3285V21.3285C20.9997 22.4331 20.1043 23.3285 18.9997 23.3285H4.9997C3.89513 23.3285 2.9997 22.4331 2.9997 21.3285V10.3285C2.9997 10.219 3.01728 10.1137 3.04977 10.0151ZM4.92871 9.32848L11.2927 2.96452C11.6832 2.574 12.3164 2.574 12.7069 2.96452L19.0708 9.32848H19.0405V9.3588L12.7069 15.6924C12.3164 16.083 11.6832 16.083 11.2927 15.6924L4.92871 9.32848ZM18.9997 12.2281L14.1211 17.1067C12.9495 18.2782 11.05 18.2782 9.87846 17.1067L4.9997 12.2279L4.9997 21.3285H18.9997V12.2281Z" fill="black"/>
</svg>
