<svg width="24" height="24" viewBox="0 0 24 24" fill="none" xmlns="http://www.w3.org/2000/svg">
<path d="M8.54982 10.5503C8.54982 11.1026 8.1021 11.5503 7.54982 11.5503C6.99753 11.5503 6.54982 11.1026 6.54982 10.5503C6.54982 9.99801 6.99753 9.55029 7.54982 9.55029C8.1021 9.55029 8.54982 9.99801 8.54982 10.5503Z" fill="black"/>
<path d="M10.5498 11.5503C11.1021 11.5503 11.5498 11.1026 11.5498 10.5503C11.5498 9.99801 11.1021 9.55029 10.5498 9.55029C9.99753 9.55029 9.54982 9.99801 9.54982 10.5503C9.54982 11.1026 9.99753 11.5503 10.5498 11.5503Z" fill="black"/>
<path d="M13.5498 11.5503C14.1021 11.5503 14.5498 11.1026 14.5498 10.5503C14.5498 9.99801 14.1021 9.55029 13.5498 9.55029C12.9975 9.55029 12.5498 9.99801 12.5498 10.5503C12.5498 11.1026 12.9975 11.5503 13.5498 11.5503Z" fill="black"/>
<path fill-rule="evenodd" clip-rule="evenodd" d="M16.2067 4.89344C19.0918 7.7786 19.3126 12.3192 16.8689 15.4577C16.8842 15.4712 16.8991 15.4853 16.9138 15.4999L21.1564 19.7426C21.5469 20.1331 21.5469 20.7663 21.1564 21.1568C20.7659 21.5473 20.1327 21.5473 19.7422 21.1568L15.4995 16.9141C15.4849 16.8995 15.4709 16.8846 15.4573 16.8693C12.3188 19.3131 7.77815 19.0923 4.89295 16.2071C1.76876 13.083 1.76876 8.01763 4.89295 4.89344C8.01714 1.76924 13.0825 1.76924 16.2067 4.89344ZM6.30716 14.7929C8.65031 17.1361 12.4493 17.1361 14.7924 14.7929C17.1356 12.4498 17.1356 8.6508 14.7924 6.30765C12.4493 3.96451 8.65031 3.96451 6.30716 6.30765C3.96402 8.6508 3.96402 12.4498 6.30716 14.7929Z" fill="black"/>
</svg>
