<svg width="24" height="24" viewBox="0 0 24 24" fill="none" xmlns="http://www.w3.org/2000/svg">
<path fill-rule="evenodd" clip-rule="evenodd" d="M7.03411 6.5C7.03411 3.73858 9.27268 1.5 12.0341 1.5C14.7955 1.5 17.0341 3.73858 17.0341 6.5V10.5C17.0341 13.2614 14.7955 15.5 12.0341 15.5C9.27268 15.5 7.03411 13.2614 7.03411 10.5V6.5ZM15.0341 6.5V10.5C15.0341 12.1569 13.691 13.5 12.0341 13.5C10.3773 13.5 9.03411 12.1569 9.03411 10.5V6.5C9.03411 4.84315 10.3773 3.5 12.0341 3.5C13.691 3.5 15.0341 4.84315 15.0341 6.5Z" fill="black"/>
<path d="M12.0341 16.5C11.4818 16.5 11.0341 16.9477 11.0341 17.5V21.5C11.0341 22.0523 11.4818 22.5 12.0341 22.5C12.5864 22.5 13.0341 22.0523 13.0341 21.5V17.5C13.0341 16.9477 12.5864 16.5 12.0341 16.5Z" fill="black"/>
<path d="M7.74409 16.4397C7.93298 15.9207 8.50682 15.6531 9.0258 15.842C9.54478 16.0309 9.81237 16.6048 9.62347 17.1237L8.25539 20.8825C8.0665 21.4015 7.49266 21.6691 6.97368 21.4802C6.4547 21.2913 6.18712 20.7174 6.37601 20.1985L7.74409 16.4397Z" fill="black"/>
<path d="M14.9738 15.8421C14.4548 16.031 14.1872 16.6048 14.3761 17.1238L15.7442 20.8825C15.9331 21.4015 16.5069 21.6691 17.0259 21.4802C17.5449 21.2913 17.8125 20.7175 17.6236 20.1985L16.2555 16.4397C16.0666 15.9208 15.4928 15.6532 14.9738 15.8421Z" fill="black"/>
</svg>
