<svg width="24" height="24" viewBox="0 0 24 24" fill="none" xmlns="http://www.w3.org/2000/svg">
<path fill-rule="evenodd" clip-rule="evenodd" d="M14.9239 18V14C14.9239 12.3431 13.5808 11 11.9239 11C10.2671 11 8.92392 12.3431 8.92392 14V18C8.92392 19.6569 10.2671 21 11.9239 21C13.5808 21 14.9239 19.6569 14.9239 18ZM11.9239 9C9.1625 9 6.92392 11.2386 6.92392 14V18C6.92392 20.7614 9.1625 23 11.9239 23C14.6853 23 16.9239 20.7614 16.9239 18V14C16.9239 11.2386 14.6853 9 11.9239 9Z" fill="black"/>
<path d="M10.9239 14C10.9239 13.4477 11.3716 13 11.9239 13C12.4762 13 12.9239 13.4477 12.9239 14V17H10.9239V14Z" fill="black"/>
<path d="M11.9239 1C14.7027 1 17.2167 2.13339 19.029 3.96311L17.6148 5.37735C16.1644 3.90955 14.1504 3 11.9239 3C9.77473 3 7.82348 3.84749 6.38614 5.22651L4.97168 3.81205C6.77116 2.07122 9.22244 1 11.9239 1Z" fill="black"/>
<path fill-rule="evenodd" clip-rule="evenodd" d="M11.9237 5C13.5812 5 15.1042 5.5761 16.3033 6.53898L14.8772 7.9651C14.0496 7.35833 13.0285 7 11.9237 7C10.8484 7 9.85241 7.33943 9.03698 7.91699L7.60815 6.48816C8.79723 5.55586 10.2955 5 11.9237 5Z" fill="black"/>
</svg>
