<svg width="24" height="24" viewBox="0 0 24 24" fill="none" xmlns="http://www.w3.org/2000/svg">
<path d="M12.0495 3.11401C14.1931 3.11401 16.1397 3.95706 17.576 5.32967L16.1613 6.74437C15.0873 5.73346 13.6408 5.11401 12.0495 5.11401C10.409 5.11401 8.9222 5.77243 7.83905 6.83944L6.4248 5.42519C7.86991 3.99627 9.85668 3.11401 12.0495 3.11401Z" fill="black"/>
<path d="M10.9771 11.886C10.9771 11.3337 11.4248 10.886 11.9771 10.886C12.5293 10.886 12.9771 11.3337 12.9771 11.886V13.886H10.9771V11.886Z" fill="black"/>
<path fill-rule="evenodd" clip-rule="evenodd" d="M11.9771 6.88599C9.21563 6.88599 6.97705 9.12456 6.97705 11.886V15.886C6.97705 18.6474 9.21563 20.886 11.9771 20.886C14.7385 20.886 16.9771 18.6474 16.9771 15.886V11.886C16.9771 9.12456 14.7385 6.88599 11.9771 6.88599ZM14.9771 15.886V11.886C14.9771 10.2291 13.6339 8.88599 11.9771 8.88599C10.3202 8.88599 8.97705 10.2291 8.97705 11.886V15.886C8.97705 17.5428 10.3202 18.886 11.9771 18.886C13.6339 18.886 14.9771 17.5428 14.9771 15.886Z" fill="black"/>
</svg>
