<svg width="24" height="24" viewBox="0 0 24 24" fill="none" xmlns="http://www.w3.org/2000/svg">
<path d="M16.9497 5.63615C17.3402 5.24563 17.9734 5.24563 18.3639 5.63615C18.7544 6.02668 18.7544 6.65984 18.3639 7.05037L11.2928 14.1214C10.9023 14.512 10.2691 14.512 9.87861 14.1214C9.48808 13.7309 9.48809 13.0977 9.87861 12.7072L16.9497 5.63615Z" fill="black"/>
<path fill-rule="evenodd" clip-rule="evenodd" d="M7.82801 17.5862C9.76938 18.8725 12.4108 18.6603 14.1213 16.9499L21.1923 9.8788C23.1449 7.92617 23.1449 4.76035 21.1923 2.80773C19.2397 0.855106 16.0739 0.855106 14.1213 2.80773L7.05018 9.8788C5.33972 11.5893 5.12759 14.2307 6.4138 16.172L2.80754 19.7783C2.41702 20.1688 2.41702 20.802 2.80754 21.1925C3.19807 21.583 3.83123 21.583 4.22176 21.1925L7.82801 17.5862ZM12.707 15.5356L19.7781 8.46458C20.9497 7.29301 20.9497 5.39351 19.7781 4.22194C18.6065 3.05037 16.707 3.05037 15.5355 4.22194L8.4644 11.293C7.29282 12.4646 7.29282 14.3641 8.4644 15.5356C9.63597 16.7072 11.5355 16.7072 12.707 15.5356Z" fill="black"/>
</svg>
